{"glyphs":{"0":{"ha":1233,"x_min":53,"x_max":1181,"o":"m 617 983 q 836 956 739 983 q 997 881 933 928 q 1103 769 1061 835 q 1163 631 1144 703 q 1181 476 1181 558 q 1151 289 1181 375 q 1058 131 1121 203 q 881 19 994 60 q 617 -22 768 -22 q 352 19 465 -22 q 176 131 239 60 q 83 289 113 203 q 53 476 53 375 q 82 669 53 582 q 174 829 111 757 q 351 942 238 901 q 617 983 464 983 m 702 756 q 682 763 702 756 q 617 769 663 769 q 531 756 571 769 q 454 713 492 743 q 394 622 417 682 q 372 476 372 561 q 394 336 372 394 q 454 248 417 278 q 531 205 492 218 q 617 192 571 192 q 702 203 663 192 q 779 244 742 215 q 839 333 817 274 q 861 476 861 392 q 839 622 861 561 q 779 713 817 682 q 702 756 742 743 z "},"1":{"ha":849,"x_min":71,"x_max":668,"o":"m 365 0 l 365 578 l 71 578 l 71 783 l 118 783 q 218 790 176 783 q 302 813 260 796 q 376 867 344 831 q 428 961 407 904 l 668 961 l 668 0 l 365 0 z "},"2":{"ha":1233,"x_min":43,"x_max":1163,"o":"m 1150 214 l 1150 0 l 43 0 q 82 202 47 115 q 181 346 117 289 q 317 438 244 403 q 489 501 389 474 l 721 567 q 793 605 765 579 q 821 664 821 631 q 774 740 821 711 q 636 769 726 768 q 484 731 543 769 q 418 613 425 692 l 76 613 q 238 898 90 813 q 638 983 385 983 q 1023 901 883 983 q 1163 660 1163 819 q 1097 492 1163 558 q 931 395 1032 426 q 726 343 831 364 q 526 292 621 322 q 396 214 432 261 l 1150 214 z "},"3":{"ha":1233,"x_min":57,"x_max":1176,"o":"m 444 411 l 444 606 l 647 606 q 763 625 725 606 q 800 694 800 644 q 618 789 800 789 q 488 772 533 789 q 424 699 443 754 l 82 699 q 141 842 92 783 q 272 931 190 901 q 440 972 353 960 q 636 983 526 983 q 1142 714 1142 983 q 1091 583 1142 635 q 976 526 1040 531 l 976 524 q 1116 452 1056 510 q 1176 296 1176 394 q 1034 58 1176 139 q 624 -22 892 -22 q 194 63 321 -22 q 57 325 67 149 l 388 325 q 613 192 399 192 q 767 219 707 192 q 826 306 826 247 q 779 385 826 360 q 625 411 732 411 l 444 411 z "},"4":{"ha":1233,"x_min":56,"x_max":1178,"o":"m 714 0 l 714 161 l 56 161 l 56 378 l 600 961 l 1000 961 l 1000 367 l 1178 367 l 1178 161 l 1000 161 l 1000 0 l 714 0 m 714 367 l 714 747 l 358 367 l 714 367 z "},"5":{"ha":1233,"x_min":53,"x_max":1165,"o":"m 100 419 l 194 961 l 1106 961 l 1106 756 l 407 756 l 381 610 q 678 656 496 656 q 1033 573 901 656 q 1165 331 1165 490 q 1025 72 1165 165 q 611 -22 885 -22 q 201 59 329 -22 q 53 304 74 140 l 394 304 q 607 192 418 192 q 779 228 724 192 q 835 328 835 265 q 778 428 835 388 q 610 469 721 469 q 415 419 483 469 l 100 419 z "},"6":{"ha":1233,"x_min":67,"x_max":1167,"o":"m 683 628 q 1167 307 1167 628 q 1035 65 1167 153 q 647 -22 904 -22 q 417 0 515 -22 q 237 76 319 22 q 110 232 154 129 q 67 485 67 335 q 217 862 67 740 q 632 983 368 983 q 809 970 728 983 q 966 926 890 957 q 1091 835 1042 894 q 1153 690 1140 775 l 828 690 q 640 778 801 778 q 449 718 503 778 q 386 554 396 658 q 683 628 500 628 m 625 433 q 459 398 501 433 q 417 303 417 363 q 469 219 417 254 q 626 183 522 183 q 788 217 740 183 q 836 303 836 251 q 625 433 836 433 z "},"7":{"ha":1157,"x_min":32,"x_max":1125,"o":"m 32 756 l 32 961 l 1125 961 l 1125 697 q 937 528 1010 599 q 788 370 864 458 q 667 191 713 282 q 600 0 621 100 l 183 0 q 255 213 197 108 q 390 401 313 318 q 585 585 467 483 l 783 756 l 32 756 z "},"8":{"ha":1233,"x_min":56,"x_max":1178,"o":"m 469 611 q 493 602 469 611 q 617 593 518 593 q 765 611 715 593 q 814 682 814 629 q 765 758 814 739 q 617 778 715 778 q 469 758 518 778 q 419 682 419 739 q 469 611 419 629 m 836 301 q 617 415 836 415 q 397 301 397 415 q 444 216 397 249 q 617 183 490 183 q 790 216 743 183 q 836 301 836 249 m 218 919 q 283 951 218 919 q 617 983 347 983 q 1015 919 886 983 q 1144 714 1144 856 q 1128 630 1144 665 q 1081 574 1111 594 q 1029 544 1050 553 q 978 525 1008 535 l 978 522 q 1124 444 1071 504 q 1178 297 1178 385 q 617 -22 1178 -22 q 56 297 56 -22 q 109 444 56 385 q 256 522 163 504 l 256 525 q 204 544 225 535 q 153 574 183 553 q 106 630 122 594 q 89 714 89 665 q 218 919 89 856 z "},"9":{"ha":1233,"x_min":67,"x_max":1167,"o":"m 81 271 l 406 271 q 593 183 432 183 q 784 243 731 183 q 847 407 838 303 q 550 333 733 333 q 67 654 67 333 q 198 896 67 808 q 586 983 329 983 q 816 961 718 983 q 997 885 914 939 q 1123 729 1079 832 q 1167 476 1167 626 q 1016 99 1167 221 q 601 -22 865 -22 q 424 -9 506 -22 q 267 35 343 4 q 142 126 192 67 q 81 271 93 186 m 608 528 q 774 563 732 528 q 817 658 817 599 q 764 742 817 707 q 607 778 711 778 q 445 744 493 778 q 397 658 397 710 q 608 528 397 528 z "},"―":{"ha":539,"x_min":0,"x_max":0,"o":""},"‖":{"ha":539,"x_min":0,"x_max":0,"o":""},"‗":{"ha":539,"x_min":0,"x_max":0,"o":""},"‛":{"ha":539,"x_min":0,"x_max":0,"o":""},"‟":{"ha":539,"x_min":0,"x_max":0,"o":""},"‣":{"ha":539,"x_min":0,"x_max":0,"o":""},"․":{"ha":539,"x_min":0,"x_max":0,"o":""},"‥":{"ha":539,"x_min":0,"x_max":0,"o":""}," ":{"ha":539,"x_min":0,"x_max":0,"o":""},"!":{"ha":539,"x_min":110,"x_max":429,"o":"m 150 351 l 110 992 l 429 992 l 389 351 l 150 351 m 114 0 l 114 275 l 425 275 l 425 0 l 114 0 z "},"\"":{"ha":926,"x_min":197,"x_max":729,"o":"m 524 444 l 524 992 l 729 992 l 729 444 l 524 444 m 197 444 l 197 992 l 403 992 l 403 444 l 197 444 z "},"#":{"ha":1233,"x_min":232,"x_max":1001,"o":"m 313 0 l 346 240 l 232 240 l 232 401 l 368 401 l 392 563 l 278 563 l 278 724 l 414 724 l 447 964 l 614 964 l 581 724 l 721 724 l 754 964 l 921 964 l 888 724 l 1001 724 l 1001 563 l 865 563 l 842 401 l 956 401 l 956 240 l 819 240 l 786 0 l 619 0 l 653 240 l 513 240 l 479 0 l 313 0 m 675 401 l 699 563 l 558 563 l 535 401 l 675 401 z "},"$":{"ha":1233,"x_min":47,"x_max":1186,"o":"m 561 621 l 561 789 q 517 786 539 789 q 468 775 496 783 q 423 748 440 767 q 406 701 406 729 q 468 638 406 649 l 561 621 m 656 367 l 656 183 q 811 275 811 186 q 778 338 811 319 q 658 367 746 356 l 656 367 m 578 -146 l 578 -22 q 369 -4 458 -19 q 208 46 281 11 q 94 143 135 81 q 47 297 53 206 l 422 297 q 461 219 428 246 q 578 183 494 192 l 578 381 l 411 404 q 141 496 218 432 q 64 679 64 560 q 99 811 64 754 q 187 900 135 868 q 310 951 239 932 q 440 977 381 971 q 561 983 499 983 l 561 1107 l 639 1107 l 639 983 q 1004 899 881 971 q 1142 676 1128 826 l 775 676 q 639 789 767 768 l 639 610 l 885 572 q 1111 487 1036 550 q 1186 301 1186 424 q 1164 188 1186 239 q 1108 104 1142 138 q 1025 47 1075 71 q 929 9 975 22 q 827 -11 883 -4 q 733 -20 771 -18 q 656 -22 696 -22 l 656 -146 l 578 -146 z "},"%":{"ha":1492,"x_min":47,"x_max":1444,"o":"m 350 850 q 296 850 350 850 q 242 717 242 850 q 350 583 242 583 q 458 717 458 583 q 350 850 458 850 m 353 -22 l 985 983 l 1140 983 l 508 -22 l 353 -22 m 1142 378 q 1088 378 1142 378 q 1033 244 1033 378 q 1142 111 1033 111 q 1250 244 1250 111 q 1142 378 1250 378 m 128 515 q 88 548 128 515 q 47 717 47 581 q 128 918 47 853 q 350 983 208 983 q 572 918 492 983 q 653 717 653 853 q 572 515 653 581 q 350 450 492 450 q 128 515 208 450 m 919 43 q 879 76 919 43 q 839 244 839 108 q 919 446 839 381 q 1142 511 1000 511 q 1364 446 1283 511 q 1444 244 1444 381 q 1364 43 1444 108 q 1142 -22 1283 -22 q 919 43 1000 -22 z "},"&":{"ha":1363,"x_min":60,"x_max":1381,"o":"m 749 218 l 486 457 q 408 399 438 440 q 379 319 379 358 q 431 209 379 254 q 575 164 482 164 q 749 218 678 164 m 1381 0 l 983 0 l 894 82 q 492 -31 725 -31 q 168 60 276 -31 q 60 288 60 151 q 343 582 60 518 q 244 758 244 668 q 349 940 244 878 q 617 1001 454 1001 q 893 941 794 1001 q 992 771 992 881 q 772 550 992 610 l 964 375 q 1124 553 1032 425 l 1281 443 q 1113 239 1208 328 l 1381 0 m 539 769 q 622 661 539 729 q 733 767 733 703 q 708 820 733 800 q 642 840 683 840 q 567 822 596 840 q 539 769 539 804 z "},"'":{"ha":539,"x_min":167,"x_max":372,"o":"m 167 444 l 167 992 l 372 992 l 372 444 l 167 444 z "},"(":{"ha":668,"x_min":111,"x_max":579,"o":"m 579 -264 l 376 -264 q 178 31 244 -136 q 111 364 111 197 q 178 697 111 531 q 376 992 244 864 l 579 992 q 406 364 406 718 q 579 -264 406 10 z "},")":{"ha":668,"x_min":89,"x_max":557,"o":"m 292 -264 l 89 -264 q 263 364 263 10 q 89 992 263 718 l 292 992 q 490 697 424 864 q 557 364 557 531 q 490 31 557 197 q 292 -264 424 -136 z "},"*":{"ha":644,"x_min":13,"x_max":632,"o":"m 72 506 l 199 656 l 13 715 l 67 871 l 244 797 l 239 992 l 406 992 l 400 797 l 578 871 l 632 715 l 446 656 l 572 506 l 439 406 l 322 564 l 206 406 l 72 506 z "},"+":{"ha":833,"x_min":65,"x_max":768,"o":"m 319 449 l 319 703 l 514 703 l 514 449 l 768 449 l 768 254 l 514 254 l 514 0 l 319 0 l 319 254 l 65 254 l 65 449 l 319 449 z "},",":{"ha":539,"x_min":114,"x_max":425,"o":"m 114 0 l 114 275 l 425 275 l 425 99 q 348 -162 425 -67 q 114 -272 271 -258 l 114 -158 q 251 0 239 -136 l 114 0 z "},"-":{"ha":668,"x_min":85,"x_max":583,"o":"m 85 296 l 85 510 l 583 510 l 583 296 l 85 296 z "},".":{"ha":539,"x_min":114,"x_max":425,"o":"m 114 0 l 114 275 l 425 275 l 425 0 l 114 0 z "},"/":{"ha":617,"x_min":-4,"x_max":621,"o":"m -4 -31 l 396 1022 l 621 1022 l 221 -31 l -4 -31 z "},":":{"ha":539,"x_min":114,"x_max":425,"o":"m 114 478 l 114 753 l 425 753 l 425 478 l 114 478 m 114 0 l 114 275 l 425 275 l 425 0 l 114 0 z "},";":{"ha":539,"x_min":114,"x_max":425,"o":"m 114 0 l 114 275 l 425 275 l 425 99 q 348 -162 425 -67 q 114 -272 271 -258 l 114 -158 q 251 0 239 -136 l 114 0 m 114 478 l 114 753 l 425 753 l 425 478 l 114 478 z "},"<":{"ha":833,"x_min":65,"x_max":768,"o":"m 65 267 l 65 436 l 768 728 l 768 540 l 296 351 l 768 163 l 768 -25 l 65 267 z "},"=":{"ha":833,"x_min":65,"x_max":768,"o":"m 65 410 l 65 604 l 768 604 l 768 410 l 65 410 m 65 99 l 65 293 l 768 293 l 768 99 l 65 99 z "},">":{"ha":833,"x_min":65,"x_max":768,"o":"m 65 -25 l 65 163 l 538 351 l 65 540 l 65 728 l 768 436 l 768 267 l 65 -25 z "},"?":{"ha":1106,"x_min":33,"x_max":1049,"o":"m 688 351 l 385 351 q 408 467 386 428 q 486 536 429 507 l 638 614 q 718 718 718 656 q 673 793 718 764 q 560 822 628 822 q 410 780 454 822 q 360 654 365 738 l 33 654 q 174 931 54 844 q 549 1017 293 1017 q 916 940 783 1017 q 1049 708 1049 863 q 1014 591 1049 640 q 928 515 979 542 q 825 466 876 488 q 734 416 774 444 q 688 351 694 388 m 381 0 l 381 275 l 692 275 l 692 0 l 381 0 z "},"@":{"ha":1111,"x_min":29,"x_max":1082,"o":"m 429 481 q 458 398 429 431 q 535 365 486 365 q 640 408 599 365 q 681 513 681 451 q 650 596 681 564 q 568 628 619 628 q 470 582 511 628 q 429 481 429 536 m 738 747 l 869 747 l 814 447 q 803 382 803 392 q 826 351 803 351 q 909 409 869 351 q 949 574 949 467 q 844 805 949 721 q 576 889 740 889 q 290 778 397 889 q 182 494 182 668 q 297 208 182 314 q 600 103 413 103 q 872 183 758 103 l 1029 183 q 578 -31 874 -31 q 190 119 351 -31 q 29 494 29 268 q 190 871 29 719 q 581 1022 350 1022 q 822 972 708 1022 q 1009 821 936 921 q 1082 594 1082 721 q 1047 434 1082 508 q 957 313 1011 360 q 840 240 903 267 q 719 213 778 213 q 664 229 686 213 q 638 275 642 246 l 632 275 q 482 213 578 213 q 325 281 390 213 q 260 457 260 350 q 341 684 260 588 q 549 781 422 781 q 726 694 661 781 l 738 747 z "},"A":{"ha":1183,"x_min":-39,"x_max":1222,"o":"m -39 0 l 392 992 l 796 992 l 1222 0 l 868 0 l 808 161 l 375 161 l 315 0 l -39 0 m 731 367 l 593 742 l 590 742 l 453 367 l 731 367 z "},"B":{"ha":1311,"x_min":100,"x_max":1253,"o":"m 431 778 l 431 610 l 760 610 q 835 633 810 610 q 861 694 861 657 q 835 754 861 731 q 760 778 810 778 l 431 778 m 431 214 l 786 214 q 871 241 839 214 q 903 317 903 268 q 872 390 903 364 q 786 415 840 415 l 431 415 l 431 214 m 100 0 l 100 992 l 921 992 q 1065 968 1006 992 q 1153 904 1125 944 q 1192 826 1181 864 q 1203 747 1203 789 q 1169 622 1203 678 q 1081 547 1135 567 l 1081 544 q 1207 463 1161 526 q 1253 296 1253 399 q 1245 219 1253 256 q 1213 141 1238 182 q 1151 70 1189 100 q 1047 20 1114 40 q 893 0 981 0 l 100 0 z "},"C":{"ha":1338,"x_min":49,"x_max":1300,"o":"m 933 382 l 1300 382 q 1265 256 1286 311 q 1197 145 1243 201 q 1084 52 1150 89 q 913 -8 1018 15 q 672 -31 808 -31 q 204 103 360 -31 q 49 496 49 238 q 202 887 49 751 q 672 1022 356 1022 q 847 1013 769 1022 q 1001 976 925 1003 q 1133 903 1078 949 q 1233 784 1189 858 q 1297 610 1276 710 l 929 610 q 674 800 876 800 q 463 716 528 800 q 399 496 399 632 q 674 192 399 192 q 850 242 783 192 q 933 382 917 293 z "},"D":{"ha":1338,"x_min":100,"x_max":1289,"o":"m 100 0 l 100 992 l 817 992 q 1169 867 1049 992 q 1289 496 1289 742 q 1249 254 1289 354 q 1137 101 1210 154 q 976 24 1064 47 q 774 0 888 0 l 100 0 m 431 769 l 431 222 l 707 222 q 824 245 775 222 q 898 309 872 268 q 935 396 924 350 q 947 497 947 442 q 681 769 947 769 l 431 769 z "},"E":{"ha":1132,"x_min":100,"x_max":1093,"o":"m 100 0 l 100 992 l 1093 992 l 1093 778 l 431 778 l 431 599 l 1051 599 l 1051 393 l 431 393 l 431 214 l 1093 214 l 1093 0 l 100 0 z "},"F":{"ha":1056,"x_min":100,"x_max":1046,"o":"m 100 0 l 100 992 l 1046 992 l 1046 769 l 431 769 l 431 599 l 1003 599 l 1003 385 l 431 385 l 431 0 l 100 0 z "},"G":{"ha":1389,"x_min":49,"x_max":1294,"o":"m 761 357 l 761 563 l 1294 563 l 1294 0 l 1140 0 l 1100 103 q 949 11 1056 53 q 672 -31 843 -31 q 201 102 353 -31 q 49 496 49 235 q 206 875 49 728 q 671 1022 364 1022 q 880 1006 783 1022 q 1068 951 976 989 q 1219 841 1160 914 q 1294 665 1279 768 l 921 665 q 685 808 882 808 q 465 721 539 808 q 390 494 390 633 q 465 270 390 357 q 685 183 539 183 q 964 357 915 183 l 761 357 z "},"H":{"ha":1363,"x_min":100,"x_max":1263,"o":"m 932 0 l 932 415 l 431 415 l 431 0 l 100 0 l 100 992 l 431 992 l 431 638 l 932 638 l 932 992 l 1263 992 l 1263 0 l 932 0 z "},"I":{"ha":539,"x_min":104,"x_max":435,"o":"m 104 0 l 104 992 l 435 992 l 435 0 l 104 0 z "},"J":{"ha":1029,"x_min":13,"x_max":946,"o":"m 13 356 l 13 397 l 343 397 q 369 232 343 279 q 478 183 394 185 q 588 227 561 183 q 615 364 615 271 l 615 992 l 946 992 l 946 344 q 937 231 946 281 q 899 130 928 181 q 823 45 871 79 q 693 -10 775 11 q 500 -31 611 -31 q 300 -14 383 -31 q 149 44 217 3 q 47 163 81 85 q 13 356 13 240 z "},"K":{"ha":1286,"x_min":100,"x_max":1319,"o":"m 100 0 l 100 992 l 431 992 l 431 603 l 844 992 l 1285 992 l 836 601 l 1319 0 l 878 0 l 571 396 l 431 279 l 431 0 l 100 0 z "},"L":{"ha":1056,"x_min":100,"x_max":1035,"o":"m 100 0 l 100 992 l 431 992 l 431 231 l 1035 231 l 1035 0 l 100 0 z "},"M":{"ha":1622,"x_min":100,"x_max":1522,"o":"m 100 0 l 100 992 l 583 992 l 810 338 l 813 338 l 1039 992 l 1522 992 l 1522 0 l 1211 0 l 1211 742 l 1208 742 l 947 0 l 675 0 l 414 742 l 411 742 l 411 0 l 100 0 z "},"N":{"ha":1363,"x_min":100,"x_max":1263,"o":"m 100 0 l 100 992 l 481 992 l 940 371 l 943 371 l 943 992 l 1263 992 l 1263 0 l 897 0 l 422 626 l 419 626 l 419 0 l 100 0 z "},"O":{"ha":1389,"x_min":49,"x_max":1340,"o":"m 694 -31 q 372 -31 694 -31 q 49 496 49 -31 q 694 1022 49 1022 q 1340 496 1340 1022 q 694 -31 1340 -31 m 399 496 q 478 268 399 344 q 694 192 557 192 q 911 268 832 192 q 990 496 990 344 q 911 724 990 647 q 694 800 832 800 q 478 723 557 800 q 399 496 399 646 z "},"P":{"ha":1235,"x_min":100,"x_max":1199,"o":"m 431 786 l 431 536 l 725 536 q 826 566 794 536 q 857 661 857 596 q 826 756 857 726 q 725 786 794 786 l 431 786 m 100 0 l 100 992 l 833 992 q 1112 902 1025 992 q 1199 661 1199 813 q 1181 540 1199 596 q 1124 435 1163 483 q 1015 358 1086 386 q 849 331 944 331 l 431 331 l 431 0 l 100 0 z "},"Q":{"ha":1389,"x_min":49,"x_max":1340,"o":"m 1185 -178 l 981 1 q 840 -22 924 -12 q 694 -31 767 -31 q 49 496 49 -31 q 694 1022 49 1022 q 1340 496 1340 1022 q 1189 110 1340 240 l 1331 -17 l 1185 -178 m 760 196 l 692 256 l 836 418 l 949 319 q 990 496 990 386 q 911 724 990 647 q 694 800 832 800 q 478 723 557 800 q 399 496 399 646 q 478 268 399 344 q 694 192 557 192 q 760 196 725 192 z "},"R":{"ha":1286,"x_min":100,"x_max":1250,"o":"m 431 769 l 431 553 l 749 553 q 840 582 808 553 q 872 663 872 611 q 840 741 872 713 q 749 769 808 769 l 431 769 m 100 0 l 100 992 l 894 992 q 1226 715 1226 992 q 1183 564 1226 621 q 1068 489 1139 507 l 1068 486 q 1188 308 1176 450 q 1210 91 1200 147 q 1250 0 1221 35 l 888 0 q 868 147 868 46 q 835 294 868 257 q 733 331 803 331 l 431 331 l 431 0 l 100 0 z "},"S":{"ha":1235,"x_min":32,"x_max":1203,"o":"m 1161 701 l 786 701 q 571 817 769 817 q 399 719 399 817 q 472 658 399 671 q 681 626 508 653 q 907 590 854 600 q 1128 499 1053 565 q 1203 308 1203 433 q 631 -31 1203 -31 q 396 -17 494 -31 q 214 33 297 -3 q 85 138 131 69 q 32 306 39 206 l 424 306 q 478 214 431 244 q 646 183 525 183 q 819 288 819 183 q 785 344 819 326 q 663 376 751 363 l 332 426 q 49 707 49 469 q 60 790 49 750 q 105 874 71 831 q 194 949 139 918 q 344 1001 249 981 q 564 1022 439 1022 q 995 947 844 1022 q 1161 701 1146 872 z "},"T":{"ha":1056,"x_min":-1,"x_max":1057,"o":"m -1 769 l -1 992 l 1057 992 l 1057 769 l 693 769 l 693 0 l 363 0 l 363 769 l -1 769 z "},"U":{"ha":1286,"x_min":86,"x_max":1200,"o":"m 86 350 l 86 992 l 417 992 l 417 404 q 471 240 417 288 q 643 192 525 192 q 815 240 761 192 q 869 404 869 288 l 869 992 l 1200 992 l 1200 350 q 1058 60 1200 151 q 643 -31 917 -31 q 228 60 369 -31 q 86 350 86 151 z "},"V":{"ha":1131,"x_min":-51,"x_max":1182,"o":"m 390 0 l -51 992 l 311 992 l 564 285 l 567 285 l 819 992 l 1182 992 l 740 0 l 390 0 z "},"W":{"ha":1594,"x_min":0,"x_max":1594,"o":"m 297 0 l 0 992 l 319 992 l 475 322 l 478 322 l 657 992 l 938 992 l 1117 322 l 1119 322 l 1275 992 l 1594 992 l 1297 0 l 971 0 l 799 646 l 796 646 l 624 0 l 297 0 z "},"X":{"ha":1183,"x_min":-29,"x_max":1213,"o":"m -29 0 l 401 515 l 17 992 l 410 992 l 592 725 l 774 992 l 1167 992 l 782 515 l 1213 0 l 803 0 l 592 300 l 381 0 l -29 0 z "},"Y":{"ha":1131,"x_min":-40,"x_max":1171,"o":"m 400 0 l 400 313 l -40 992 l 343 992 l 565 571 l 788 992 l 1171 992 l 731 313 l 731 0 l 400 0 z "},"Z":{"ha":1131,"x_min":25,"x_max":1093,"o":"m 25 0 l 25 190 l 650 769 l 68 769 l 68 992 l 1093 992 l 1093 797 l 472 222 l 1083 222 l 1083 0 l 25 0 z "},"[":{"ha":668,"x_min":100,"x_max":633,"o":"m 100 -264 l 100 992 l 633 992 l 633 778 l 394 778 l 394 -50 l 633 -50 l 633 -264 l 100 -264 z "},"\\":{"ha":617,"x_min":0,"x_max":617,"o":"m 400 -31 l 0 1022 l 217 1022 l 617 -31 l 400 -31 z "},"]":{"ha":668,"x_min":35,"x_max":568,"o":"m 35 -264 l 35 -50 l 274 -50 l 274 778 l 35 778 l 35 992 l 568 992 l 568 -264 l 35 -264 z "},"^":{"ha":833,"x_min":65,"x_max":768,"o":"m 65 454 l 308 961 l 525 961 l 768 454 l 569 454 l 417 783 l 264 454 l 65 454 z "},"_":{"ha":694,"x_min":0,"x_max":694,"o":"m 0 -174 l 0 -104 l 694 -104 l 694 -174 l 0 -174 z "},"`":{"ha":386,"x_min":-117,"x_max":368,"o":"m 90 839 l -117 1033 l 242 1033 l 368 839 l 90 839 z "},"a":{"ha":1131,"x_min":38,"x_max":1069,"o":"m 383 517 l 89 517 q 127 629 97 582 q 199 703 157 676 q 303 747 242 731 q 424 767 365 763 q 560 772 483 772 q 751 762 671 772 q 901 724 832 751 q 1004 645 969 697 q 1039 517 1039 593 l 1039 136 q 1069 0 1039 56 l 775 0 q 760 69 763 29 q 614 -9 700 13 q 406 -31 528 -31 q 38 204 38 -31 q 117 383 38 328 q 363 450 197 439 l 656 469 q 727 487 710 474 q 744 531 744 500 q 558 611 744 611 q 383 517 404 611 m 753 306 l 753 351 q 640 331 718 340 l 442 307 q 357 231 357 297 q 393 163 357 188 q 489 139 429 139 q 684 183 615 139 q 753 306 753 228 z "},"b":{"ha":1131,"x_min":78,"x_max":1093,"o":"m 78 0 l 78 1014 l 372 1014 l 372 657 l 375 657 q 656 772 454 772 q 975 660 857 772 q 1093 378 1093 547 q 974 77 1093 185 q 653 -31 856 -31 q 367 89 464 -31 l 364 89 l 364 0 l 78 0 m 426 515 q 399 490 426 515 q 372 375 372 464 q 426 235 372 286 q 582 183 481 183 q 737 233 683 183 q 790 375 790 282 q 737 517 790 468 q 582 567 683 567 q 426 515 481 567 z "},"c":{"ha":1131,"x_min":44,"x_max":1093,"o":"m 782 307 l 1093 307 q 935 54 1058 139 q 572 -31 813 -31 q 181 71 317 -31 q 44 376 44 172 q 184 680 44 576 q 572 783 324 783 q 1079 460 1043 783 l 776 460 q 576 589 754 589 q 414 533 472 589 q 356 376 356 478 q 413 219 356 275 q 578 164 471 164 q 782 307 753 164 z "},"d":{"ha":1131,"x_min":38,"x_max":1053,"o":"m 767 0 l 767 89 l 764 89 q 478 -31 667 -31 q 156 77 275 -31 q 38 378 38 185 q 156 660 38 547 q 475 772 274 772 q 756 657 676 772 l 758 657 l 758 1014 l 1053 1014 l 1053 0 l 767 0 m 704 235 q 731 260 704 235 q 758 375 758 286 q 704 515 758 464 q 549 567 650 567 q 394 517 447 567 q 340 375 340 468 q 394 233 340 282 q 549 183 447 183 q 704 235 650 183 z "},"e":{"ha":1131,"x_min":44,"x_max":1086,"o":"m 347 460 l 783 460 q 716 571 769 528 q 565 614 663 614 q 415 571 468 614 q 347 460 361 528 m 761 224 l 1072 224 q 918 43 1042 117 q 572 -31 794 -31 q 44 378 44 -31 q 184 678 44 574 q 564 783 324 783 q 949 671 813 783 q 1086 329 1086 558 l 1086 307 l 347 307 q 583 139 374 139 q 761 224 694 139 z "},"f":{"ha":643,"x_min":0,"x_max":643,"o":"m 0 558 l 0 753 l 154 753 l 154 817 q 166 910 154 874 q 211 976 178 947 q 308 1019 244 1006 q 471 1033 372 1033 q 643 1022 551 1033 l 643 856 l 511 856 q 460 844 472 856 q 449 799 449 833 l 449 753 l 643 753 l 643 558 l 449 558 l 449 0 l 154 0 l 154 558 l 0 558 z "},"g":{"ha":1157,"x_min":38,"x_max":1079,"o":"m 793 657 l 793 753 l 1079 753 l 1079 68 q 963 -206 1079 -122 q 578 -289 847 -289 q 210 -233 336 -289 q 61 -31 83 -178 l 386 -31 q 565 -119 404 -119 q 736 -74 688 -119 q 785 76 785 -29 l 785 129 q 483 33 690 33 q 147 135 256 33 q 38 403 38 238 q 152 667 38 561 q 483 772 267 772 q 790 657 704 772 l 793 657 m 403 528 q 376 503 403 528 q 349 399 349 478 q 403 269 349 319 q 565 219 458 219 q 785 396 785 219 q 730 528 785 479 q 565 578 675 578 q 403 528 458 578 z "},"h":{"ha":1081,"x_min":78,"x_max":1003,"o":"m 78 0 l 78 1017 l 372 1017 l 372 644 l 375 644 q 496 738 415 703 q 683 772 576 772 q 915 702 828 772 q 1003 496 1003 632 l 1003 0 l 708 0 l 708 407 q 556 550 708 550 q 423 504 474 550 q 372 369 372 458 l 372 0 l 78 0 z "},"i":{"ha":461,"x_min":83,"x_max":378,"o":"m 83 0 l 83 753 l 378 753 l 378 0 l 83 0 m 83 839 l 83 1017 l 378 1017 l 378 839 l 83 839 z "},"j":{"ha":489,"x_min":-37,"x_max":406,"o":"m -37 -268 l -37 -67 l -3 -67 q 92 -50 74 -67 q 111 31 111 -33 l 111 753 l 406 753 l 406 10 q 346 -214 406 -156 q 110 -272 286 -272 q -37 -268 79 -272 m 111 839 l 111 1017 l 406 1017 l 406 839 l 111 839 z "},"k":{"ha":1081,"x_min":78,"x_max":1099,"o":"m 78 0 l 78 1017 l 372 1017 l 372 490 l 667 753 l 1065 753 l 718 474 l 1099 0 l 699 0 l 485 285 l 372 194 l 372 0 l 78 0 z "},"l":{"ha":461,"x_min":83,"x_max":378,"o":"m 83 0 l 83 1017 l 378 1017 l 378 0 l 83 0 z "},"m":{"ha":1622,"x_min":78,"x_max":1544,"o":"m 78 0 l 78 753 l 364 753 l 364 643 l 367 643 q 669 772 499 772 q 936 643 851 772 q 1074 740 1001 707 q 1253 772 1147 772 q 1463 710 1382 772 q 1544 517 1544 649 l 1544 0 l 1250 0 l 1250 439 q 1217 522 1250 493 q 1124 550 1183 550 q 1001 515 1044 550 q 958 421 958 479 l 958 0 l 664 0 l 664 439 q 631 522 664 493 q 538 550 597 550 q 415 515 458 550 q 372 421 372 479 l 372 0 l 78 0 z "},"n":{"ha":1081,"x_min":78,"x_max":1003,"o":"m 78 0 l 78 753 l 364 753 l 364 644 l 367 644 q 683 772 471 772 q 915 702 828 772 q 1003 496 1003 632 l 1003 0 l 708 0 l 708 407 q 556 550 708 550 q 423 504 474 550 q 372 369 372 458 l 372 0 l 78 0 z "},"o":{"ha":1131,"x_min":38,"x_max":1093,"o":"m 724 535 q 695 562 724 535 q 565 589 667 589 q 406 535 464 589 q 349 376 349 481 q 406 218 349 272 q 565 164 464 164 q 724 218 667 164 q 782 376 782 272 q 724 535 782 481 m 174 74 q 106 126 174 74 q 38 376 38 178 q 174 679 38 575 q 565 783 310 783 q 957 679 821 783 q 1093 376 1093 575 q 957 74 1093 178 q 565 -31 821 -31 q 174 74 310 -31 z "},"p":{"ha":1131,"x_min":78,"x_max":1093,"o":"m 78 -272 l 78 753 l 364 753 l 364 653 l 367 653 q 653 772 464 772 q 974 665 856 772 q 1093 364 1093 557 q 975 82 1093 194 q 656 -31 857 -31 q 488 -3 561 -31 q 375 68 414 24 l 372 68 l 372 -272 l 78 -272 m 426 515 q 399 490 426 515 q 372 375 372 464 q 426 235 372 286 q 582 183 481 183 q 737 233 683 183 q 790 375 790 282 q 737 517 790 468 q 582 567 683 567 q 426 515 481 567 z "},"q":{"ha":1131,"x_min":38,"x_max":1053,"o":"m 758 -272 l 758 68 l 756 68 q 467 -31 667 -31 q 151 81 265 -31 q 38 364 38 192 q 161 662 38 551 q 486 772 285 772 q 644 741 571 772 q 764 653 718 710 l 767 653 l 767 753 l 1053 753 l 1053 -272 l 758 -272 m 704 235 q 731 260 704 235 q 758 375 758 286 q 704 515 758 464 q 549 567 650 567 q 394 517 447 567 q 340 375 340 468 q 394 233 340 282 q 549 183 447 183 q 704 235 650 183 z "},"r":{"ha":797,"x_min":83,"x_max":783,"o":"m 83 0 l 83 753 l 374 753 l 374 604 l 376 604 q 503 726 421 681 q 683 772 585 772 q 783 764 739 772 l 783 489 q 621 514 715 514 q 438 456 499 514 q 378 292 378 397 l 378 0 l 83 0 z "},"s":{"ha":1054,"x_min":38,"x_max":1017,"o":"m 38 235 l 379 235 q 421 171 386 189 q 551 147 461 147 q 686 214 686 147 q 664 255 686 243 q 585 274 642 267 l 322 306 q 126 371 190 321 q 63 515 63 421 q 178 722 63 661 q 519 783 294 783 q 989 533 969 783 l 658 533 q 606 597 654 579 q 500 614 567 614 q 365 543 365 614 q 460 490 365 501 l 714 463 q 944 392 871 446 q 1017 231 1017 339 q 535 -31 1017 -31 q 38 235 46 -31 z "},"t":{"ha":694,"x_min":0,"x_max":649,"o":"m 0 558 l 0 753 l 154 753 l 154 992 l 449 992 l 449 753 l 643 753 l 643 558 l 449 558 l 449 256 q 466 192 449 206 q 544 178 483 178 q 649 181 571 178 l 649 -3 q 425 -17 549 -17 q 216 28 278 -17 q 154 193 154 74 l 154 558 l 0 558 z "},"u":{"ha":1081,"x_min":78,"x_max":1003,"o":"m 78 274 l 78 753 l 372 753 l 372 364 q 410 231 372 271 q 525 192 449 192 q 658 238 607 192 q 708 372 708 283 l 708 753 l 1003 753 l 1003 0 l 717 0 l 717 97 l 714 97 q 397 -31 610 -31 q 164 42 250 -31 q 78 274 78 114 z "},"v":{"ha":1003,"x_min":-14,"x_max":1017,"o":"m 333 0 l -14 753 l 321 753 l 501 257 l 682 753 l 1017 753 l 669 0 l 333 0 z "},"w":{"ha":1569,"x_min":3,"x_max":1567,"o":"m 275 0 l 3 753 l 322 753 l 478 258 l 481 258 l 651 753 l 918 753 l 1089 258 l 1092 258 l 1247 753 l 1567 753 l 1294 0 l 944 0 l 786 443 l 783 443 l 625 0 l 275 0 z "},"x":{"ha":1081,"x_min":-8,"x_max":1089,"o":"m -8 0 l 339 390 l 21 753 l 386 753 l 540 535 l 694 753 l 1060 753 l 743 390 l 1089 0 l 710 0 l 540 232 l 371 0 l -8 0 z "},"y":{"ha":951,"x_min":-26,"x_max":978,"o":"m 89 -264 l 89 -78 l 160 -78 q 238 -69 208 -78 q 276 -50 267 -60 q 294 -24 286 -40 l 328 43 l -26 753 l 293 753 l 483 306 l 667 753 l 978 753 l 578 -94 q 520 -193 546 -160 q 440 -249 494 -226 q 296 -272 385 -272 q 89 -264 203 -272 z "},"z":{"ha":926,"x_min":31,"x_max":896,"o":"m 31 0 l 31 178 l 483 544 l 483 547 l 54 547 l 54 753 l 882 753 l 882 575 l 443 206 l 896 206 l 896 0 l 31 0 z "},"{":{"ha":668,"x_min":39,"x_max":621,"o":"m 39 271 l 39 457 q 88 461 63 457 q 141 485 113 465 q 169 539 169 506 l 169 800 q 378 992 169 992 l 621 992 l 621 814 l 544 814 q 464 728 464 814 l 464 493 q 435 415 464 446 q 376 376 406 385 q 314 365 346 367 l 314 363 q 349 359 335 361 q 387 348 363 357 q 426 325 411 339 q 452 285 440 311 q 464 222 464 258 l 464 0 q 544 -86 464 -86 l 621 -86 l 621 -264 l 378 -264 q 169 -72 169 -264 l 169 176 q 141 238 169 215 q 87 266 113 261 q 39 271 61 271 z "},"|":{"ha":308,"x_min":51,"x_max":257,"o":"m 51 -31 l 51 1022 l 257 1022 l 257 -31 l 51 -31 z "},"}":{"ha":668,"x_min":47,"x_max":629,"o":"m 629 457 l 629 271 q 581 267 606 271 q 527 242 556 263 q 499 189 499 222 l 499 -72 q 290 -264 499 -264 l 47 -264 l 47 -86 l 124 -86 q 204 0 204 -86 l 204 235 q 233 313 204 282 q 292 352 263 343 q 354 363 322 361 l 354 365 q 319 369 333 367 q 281 380 306 371 q 242 403 257 389 q 216 443 228 417 q 204 506 204 469 l 204 728 q 124 814 204 814 l 47 814 l 47 992 l 290 992 q 499 800 499 992 l 499 551 q 527 490 499 513 q 581 462 556 467 q 629 457 607 457 z "},"~":{"ha":833,"x_min":96,"x_max":738,"o":"m 146 201 l 96 376 q 269 496 158 496 q 424 451 329 496 q 565 401 529 401 q 616 418 592 401 q 653 452 640 435 q 688 501 667 469 l 738 326 q 692 268 710 289 q 639 227 674 247 q 564 207 604 207 q 422 253 506 207 q 263 301 336 301 q 146 201 192 301 z "},"¡":{"ha":539,"x_min":110,"x_max":429,"o":"m 110 -239 l 150 401 l 389 401 l 429 -239 l 110 -239 m 114 478 l 114 753 l 425 753 l 425 478 l 114 478 z "},"¢":{"ha":1233,"x_min":108,"x_max":1157,"o":"m 597 167 l 597 588 q 466 522 513 576 q 419 376 419 467 q 465 232 419 286 q 597 167 511 178 m 597 -178 l 597 -28 q 108 376 108 -15 q 597 782 108 767 l 597 908 l 675 908 l 675 782 q 1143 460 1108 771 l 840 460 q 675 588 821 576 l 675 167 q 846 307 821 179 l 1157 307 q 1017 61 1129 144 q 675 -28 904 -22 l 675 -178 l 597 -178 z "},"£":{"ha":1233,"x_min":83,"x_max":1161,"o":"m 103 418 l 103 563 l 182 563 q 149 694 149 633 q 284 910 149 838 q 639 983 419 983 q 1008 898 886 983 q 1131 624 1131 813 l 789 624 q 758 728 789 692 q 638 769 724 769 q 532 740 574 769 q 490 667 490 711 q 513 563 490 635 l 732 563 l 732 418 l 522 418 q 404 231 513 301 l 407 228 q 563 263 472 263 q 701 245 606 263 q 844 228 796 228 q 1072 311 971 228 l 1161 82 q 839 -22 1017 -22 q 619 9 769 -22 q 417 40 468 40 q 204 -22 319 40 l 83 185 q 178 261 144 221 q 211 358 211 301 q 208 418 211 399 l 103 418 z "},"¤":{"ha":1233,"x_min":224,"x_max":1010,"o":"m 617 675 q 488 622 538 675 q 439 481 439 568 q 488 340 439 393 q 617 286 538 286 q 745 340 696 286 q 794 481 794 393 q 744 619 794 564 q 617 675 694 675 m 224 186 l 308 271 q 244 481 244 363 q 310 690 244 600 l 224 774 l 325 875 l 408 789 q 617 853 497 853 q 825 789 736 853 l 908 875 l 1010 774 l 924 690 q 989 481 989 600 q 922 271 989 360 l 1010 186 l 908 86 l 825 174 q 617 108 738 108 q 408 174 496 108 l 325 86 l 224 186 z "},"¥":{"ha":1233,"x_min":29,"x_max":1204,"o":"m 469 0 l 469 135 l 169 135 l 169 279 l 469 279 l 469 340 l 438 386 l 169 386 l 169 531 l 336 531 l 29 961 l 394 961 l 617 556 l 839 961 l 1204 961 l 899 531 l 1064 531 l 1064 386 l 796 386 l 764 340 l 764 279 l 1064 279 l 1064 135 l 764 135 l 764 0 l 469 0 z "},"¦":{"ha":308,"x_min":51,"x_max":257,"o":"m 51 -31 l 51 381 l 257 381 l 257 -31 l 51 -31 m 51 611 l 51 1022 l 257 1022 l 257 611 l 51 611 z "},"§":{"ha":1233,"x_min":44,"x_max":1189,"o":"m 729 43 l 344 133 q 126 233 208 164 q 44 415 44 303 q 188 635 44 572 q 138 761 138 681 q 157 846 138 804 q 222 929 176 888 q 361 997 268 971 q 583 1022 454 1022 q 1088 726 1053 1022 l 772 726 q 728 805 771 782 q 588 828 685 828 q 440 758 440 828 q 465 722 440 736 q 557 694 489 708 l 871 629 q 1115 526 1040 593 q 1189 349 1189 458 q 1057 139 1189 210 q 1121 10 1121 83 q 1003 -197 1121 -122 q 636 -272 885 -272 q 108 33 143 -272 l 424 33 q 491 -61 435 -36 q 651 -86 547 -86 q 759 -67 717 -86 q 801 -17 801 -49 q 785 21 801 8 q 729 43 769 33 m 806 404 l 364 517 q 319 440 319 482 q 410 358 319 382 l 881 239 q 914 317 914 274 q 888 369 914 350 q 806 404 863 389 z "},"¨":{"ha":386,"x_min":-167,"x_max":553,"o":"m -167 826 l -167 1004 l 128 1004 l 128 826 l -167 826 m 258 826 l 258 1004 l 553 1004 l 553 826 l 258 826 z "},"©":{"ha":1111,"x_min":29,"x_max":1082,"o":"m 309 767 q 258 715 309 767 q 207 496 207 664 q 309 225 207 328 q 556 122 411 122 q 801 225 697 122 q 904 496 904 328 q 801 767 904 664 q 556 869 697 869 q 309 767 411 869 m 671 414 l 829 414 q 744 250 814 308 q 578 192 674 192 q 366 278 447 192 q 285 494 285 365 q 363 713 285 628 q 569 799 440 799 q 739 743 671 799 q 824 582 807 688 l 671 582 q 569 665 651 665 q 472 620 507 665 q 438 497 438 575 q 474 372 438 419 q 574 325 511 325 q 640 348 614 325 q 671 414 665 371 m 183 124 q 106 201 183 124 q 29 496 29 278 q 183 868 29 714 q 556 1022 338 1022 q 928 868 774 1022 q 1082 496 1082 714 q 928 124 1082 278 q 556 -31 774 -31 q 183 124 338 -31 z "},"ª":{"ha":735,"x_min":15,"x_max":719,"o":"m 719 497 l 510 497 q 501 539 501 518 q 272 481 415 481 q 78 518 140 481 q 15 638 15 556 q 247 788 15 778 l 421 796 q 481 828 481 799 q 369 872 481 872 q 265 822 281 872 l 50 822 q 156 956 64 917 q 374 983 224 983 q 617 949 535 983 q 699 819 699 914 l 699 579 q 719 497 699 531 m 485 693 l 485 713 q 413 703 478 711 l 304 688 q 249 644 249 681 q 271 613 249 626 q 325 600 293 600 q 442 626 399 600 q 485 693 485 651 z "},"«":{"ha":900,"x_min":117,"x_max":764,"o":"m 478 281 l 478 525 l 764 736 l 764 531 l 594 403 l 764 275 l 764 69 l 478 281 m 117 281 l 117 525 l 403 736 l 403 531 l 233 403 l 403 275 l 403 69 l 117 281 z "},"¬":{"ha":833,"x_min":65,"x_max":768,"o":"m 574 150 l 574 410 l 65 410 l 65 604 l 768 604 l 768 150 l 574 150 z "},"®":{"ha":1111,"x_min":29,"x_max":1082,"o":"m 183 124 q 106 201 183 124 q 29 496 29 278 q 183 868 29 714 q 556 1022 338 1022 q 928 868 774 1022 q 1082 496 1082 714 q 928 124 1082 278 q 556 -31 774 -31 q 183 124 338 -31 m 309 767 q 258 715 309 767 q 207 496 207 664 q 309 225 207 328 q 556 122 411 122 q 801 225 697 122 q 904 496 904 328 q 801 767 904 664 q 556 869 697 869 q 309 767 411 869 m 353 246 l 353 782 l 539 782 q 720 743 660 782 q 781 608 781 704 q 748 503 781 538 q 672 463 715 469 l 796 246 l 647 246 l 532 449 l 486 449 l 486 246 l 353 246 m 486 551 l 556 551 q 636 615 636 551 q 556 679 636 679 l 486 679 l 486 551 z "},"¯":{"ha":386,"x_min":-172,"x_max":558,"o":"m -172 861 l -172 1022 l 558 1022 l 558 861 l -172 861 z "},"°":{"ha":556,"x_min":56,"x_max":500,"o":"m 121 604 q 88 637 121 604 q 56 761 56 669 q 121 918 56 853 q 278 983 186 983 q 435 918 369 983 q 500 761 500 853 q 435 604 500 669 q 278 539 369 539 q 121 604 186 539 m 194 845 q 176 827 194 845 q 158 761 158 810 q 194 677 158 713 q 278 642 229 642 q 362 677 326 642 q 397 761 397 713 q 362 845 397 810 q 278 881 326 881 q 194 845 229 881 z "},"±":{"ha":833,"x_min":65,"x_max":768,"o":"m 319 581 l 319 703 l 514 703 l 514 581 l 768 581 l 768 386 l 514 386 l 514 264 l 319 264 l 319 386 l 65 386 l 65 581 l 319 581 m 65 0 l 65 194 l 768 194 l 768 0 l 65 0 z "},"²":{"ha":801,"x_min":19,"x_max":775,"o":"m 747 536 l 747 392 l 19 392 q 100 578 25 514 q 310 678 175 643 l 460 717 q 525 775 525 735 q 414 839 525 836 q 322 815 358 839 q 281 744 285 792 l 31 744 q 144 935 40 878 q 414 983 235 983 q 775 774 775 983 q 560 597 775 635 q 276 539 310 554 l 276 536 l 747 536 z "},"³":{"ha":801,"x_min":4,"x_max":774,"o":"m 275 619 l 275 753 l 399 753 q 497 800 497 753 q 388 850 497 850 q 310 840 338 850 q 269 797 282 829 l 22 797 q 146 950 33 907 q 403 983 233 983 q 667 943 588 983 q 747 811 747 903 q 711 730 747 761 q 621 696 675 699 l 621 693 q 730 653 686 688 q 774 557 774 618 q 679 419 774 463 q 392 375 585 375 q 95 421 179 375 q 4 569 11 467 l 246 569 q 283 533 250 549 q 385 519 322 519 q 515 563 515 519 q 385 619 515 619 l 275 619 z "},"´":{"ha":386,"x_min":18,"x_max":503,"o":"m 18 839 l 144 1033 l 503 1033 l 296 839 l 18 839 z "},"µ":{"ha":1081,"x_min":78,"x_max":1003,"o":"m 717 0 l 717 97 l 714 97 q 504 -31 622 -31 q 375 19 418 -31 l 372 19 l 372 -272 l 78 -272 l 78 753 l 372 753 l 372 364 q 410 231 372 271 q 525 192 449 192 q 658 238 607 192 q 708 372 708 283 l 708 753 l 1003 753 l 1003 0 l 717 0 z "},"¶":{"ha":1000,"x_min":32,"x_max":893,"o":"m 356 -242 l 356 458 q 117 526 203 458 q 32 721 32 593 q 51 835 32 786 q 101 913 69 883 q 179 961 132 943 q 276 985 226 979 q 388 992 325 992 l 893 992 l 893 -242 l 699 -242 l 699 839 l 550 839 l 550 -242 l 356 -242 z "},"·":{"ha":539,"x_min":104,"x_max":435,"o":"m 152 244 q 128 268 152 244 q 104 361 104 292 q 152 478 104 431 q 269 526 200 526 q 387 478 339 526 q 435 361 435 431 q 387 244 435 292 q 269 196 339 196 q 152 244 200 196 z "},"¸":{"ha":386,"x_min":-12,"x_max":385,"o":"m -12 -283 l 13 -212 q 125 -232 81 -232 q 173 -219 156 -232 q 190 -189 190 -207 q 136 -154 190 -154 q 86 -164 115 -154 l 51 -136 l 129 -21 l 225 -21 l 188 -81 q 247 -78 218 -78 q 341 -106 297 -78 q 385 -187 385 -133 q 190 -310 385 -310 q -12 -283 86 -310 z "},"¹":{"ha":551,"x_min":46,"x_max":449,"o":"m 224 392 l 224 728 l 46 728 l 46 872 l 76 872 q 204 892 156 872 q 278 969 253 911 l 449 969 l 449 392 l 224 392 z "},"º":{"ha":735,"x_min":1,"x_max":733,"o":"m 270 819 q 252 804 270 819 q 235 732 235 789 q 269 644 235 675 q 368 614 304 614 q 465 644 431 614 q 500 732 500 675 q 465 819 500 789 q 368 850 431 850 q 270 819 306 850 m 1 732 q 96 921 1 858 q 368 983 190 983 q 639 921 544 983 q 733 732 733 858 q 639 544 733 607 q 368 481 544 481 q 97 544 192 481 q 1 732 1 607 z "},"»":{"ha":900,"x_min":136,"x_max":783,"o":"m 136 69 l 136 275 l 306 403 l 136 531 l 136 736 l 422 525 l 422 281 l 136 69 m 497 69 l 497 275 l 667 403 l 497 531 l 497 736 l 783 525 l 783 281 l 497 69 z "},"¼":{"ha":1851,"x_min":88,"x_max":1676,"o":"m 1365 0 l 1365 76 l 946 76 l 946 226 l 1300 578 l 1579 578 l 1579 246 l 1676 246 l 1676 76 l 1579 76 l 1579 0 l 1365 0 m 1365 246 l 1365 461 l 1142 246 l 1365 246 m 407 -22 l 1039 983 l 1194 983 l 563 -22 l 407 -22 m 265 392 l 265 728 l 88 728 l 88 872 l 118 872 q 246 892 197 872 q 319 969 294 911 l 490 969 l 490 392 l 265 392 z "},"½":{"ha":1851,"x_min":88,"x_max":1714,"o":"m 386 -22 l 1018 983 l 1174 983 l 542 -22 l 386 -22 m 265 392 l 265 728 l 88 728 l 88 872 l 118 872 q 246 892 197 872 q 319 969 294 911 l 490 969 l 490 392 l 265 392 m 1686 144 l 1686 0 l 958 0 q 1039 187 964 122 q 1249 286 1114 251 l 1399 325 q 1464 383 1464 343 q 1353 447 1464 444 q 1260 424 1297 447 q 1219 353 1224 400 l 969 353 q 1083 543 979 486 q 1353 592 1174 592 q 1714 382 1714 592 q 1499 206 1714 243 q 1215 147 1249 163 l 1215 144 l 1686 144 z "},"¾":{"ha":1851,"x_min":32,"x_max":1801,"o":"m 1490 0 l 1490 76 l 1071 76 l 1071 226 l 1425 578 l 1704 578 l 1704 246 l 1801 246 l 1801 76 l 1704 76 l 1704 0 l 1490 0 m 1490 246 l 1490 461 l 1267 246 l 1490 246 m 303 619 l 303 753 l 426 753 q 525 800 525 753 q 415 850 525 850 q 338 840 365 850 q 297 797 310 829 l 50 797 q 174 950 61 907 q 431 983 261 983 q 695 943 615 983 q 775 811 775 903 q 739 730 775 761 q 649 696 703 699 l 649 693 q 758 653 714 688 q 801 557 801 618 q 707 419 801 463 q 419 375 613 375 q 123 421 207 375 q 32 569 39 467 l 274 569 q 311 533 278 549 q 413 519 350 519 q 543 563 543 519 q 413 619 543 619 l 303 619 m 588 -22 l 1219 983 l 1375 983 l 743 -22 l 588 -22 z "},"¿":{"ha":1106,"x_min":57,"x_max":1072,"o":"m 418 401 l 721 401 q 698 285 719 325 q 619 217 676 246 l 468 139 q 388 35 388 97 q 433 -40 388 -11 q 546 -69 478 -69 q 696 -27 651 -69 q 746 99 740 15 l 1072 99 q 932 -178 1051 -92 q 557 -264 813 -264 q 190 -187 322 -264 q 57 44 57 -110 q 92 162 57 113 q 178 238 126 211 q 281 287 229 265 q 372 337 332 308 q 418 401 411 365 m 414 478 l 414 753 l 725 753 l 725 478 l 414 478 z "},"À":{"ha":1183,"x_min":-39,"x_max":1222,"o":"m -39 0 l 392 992 l 796 992 l 1222 0 l 868 0 l 808 161 l 375 161 l 315 0 l -39 0 m 731 367 l 593 742 l 590 742 l 453 367 l 731 367 m 489 1057 l 282 1251 l 640 1251 l 767 1057 l 489 1057 z "},"Á":{"ha":1183,"x_min":-39,"x_max":1222,"o":"m -39 0 l 392 992 l 796 992 l 1222 0 l 868 0 l 808 161 l 375 161 l 315 0 l -39 0 m 731 367 l 593 742 l 590 742 l 453 367 l 731 367 m 417 1057 l 543 1251 l 901 1251 l 694 1057 l 417 1057 z "},"Â":{"ha":1183,"x_min":-39,"x_max":1222,"o":"m -39 0 l 392 992 l 796 992 l 1222 0 l 868 0 l 808 161 l 375 161 l 315 0 l -39 0 m 731 367 l 593 742 l 590 742 l 453 367 l 731 367 m 179 1057 l 386 1251 l 797 1251 l 1004 1057 l 679 1057 l 581 1164 l 482 1057 l 179 1057 z "},"Ã":{"ha":1183,"x_min":-39,"x_max":1222,"o":"m -39 0 l 392 992 l 796 992 l 1222 0 l 868 0 l 808 161 l 375 161 l 315 0 l -39 0 m 731 367 l 593 742 l 590 742 l 453 367 l 731 367 m 353 1050 l 219 1050 q 444 1251 267 1251 q 543 1239 486 1251 l 736 1199 q 775 1192 771 1192 q 835 1240 815 1192 l 964 1240 q 906 1092 953 1150 q 768 1035 858 1035 q 704 1040 739 1035 q 639 1052 669 1046 q 500 1083 608 1058 q 417 1100 424 1100 q 353 1050 367 1100 z "},"Ä":{"ha":1183,"x_min":-39,"x_max":1222,"o":"m -39 0 l 392 992 l 796 992 l 1222 0 l 868 0 l 808 161 l 375 161 l 315 0 l -39 0 m 731 367 l 593 742 l 590 742 l 453 367 l 731 367 m 232 1044 l 232 1222 l 526 1222 l 526 1044 l 232 1044 m 657 1044 l 657 1222 l 951 1222 l 951 1044 l 657 1044 z "},"Å":{"ha":1183,"x_min":-39,"x_max":1222,"o":"m -39 0 l 392 992 l 796 992 l 1222 0 l 868 0 l 808 161 l 375 161 l 315 0 l -39 0 m 731 367 l 593 742 l 590 742 l 453 367 l 731 367 m 462 1074 q 435 1101 462 1074 q 408 1204 408 1128 q 462 1334 408 1281 q 592 1388 515 1388 q 722 1334 668 1388 q 775 1204 775 1281 q 722 1074 775 1128 q 592 1021 668 1021 q 462 1074 515 1021 m 535 1261 q 523 1249 535 1261 q 511 1204 511 1238 q 535 1147 511 1171 q 592 1124 558 1124 q 649 1147 625 1124 q 672 1204 672 1171 q 649 1261 672 1238 q 592 1285 625 1285 q 535 1261 558 1285 z "},"Æ":{"ha":1594,"x_min":-24,"x_max":1556,"o":"m -24 0 l 475 992 l 1550 992 l 1550 778 l 1033 778 l 1033 599 l 1531 599 l 1531 393 l 1033 393 l 1033 214 l 1556 214 l 1556 0 l 739 0 l 739 188 l 410 188 l 326 0 l -24 0 m 739 393 l 739 786 l 675 786 l 501 393 l 739 393 z "},"Ç":{"ha":1338,"x_min":49,"x_max":1300,"o":"m 933 382 l 1300 382 q 1251 228 1283 294 q 1153 101 1218 163 q 972 6 1088 40 q 694 -29 857 -28 l 664 -81 q 724 -78 694 -78 q 817 -106 774 -78 q 861 -187 861 -133 q 667 -310 861 -310 q 464 -283 563 -310 l 489 -212 q 601 -232 557 -232 q 649 -219 632 -232 q 667 -189 667 -207 q 613 -154 667 -154 q 563 -164 592 -154 l 528 -136 l 600 -28 q 187 119 325 -14 q 49 496 49 253 q 202 887 49 751 q 672 1022 356 1022 q 847 1013 769 1022 q 1001 976 925 1003 q 1133 903 1078 949 q 1233 784 1189 858 q 1297 610 1276 710 l 929 610 q 674 800 876 800 q 463 716 528 800 q 399 496 399 632 q 674 192 399 192 q 850 242 783 192 q 933 382 917 293 z "},"È":{"ha":1132,"x_min":100,"x_max":1093,"o":"m 100 0 l 100 992 l 1093 992 l 1093 778 l 431 778 l 431 599 l 1051 599 l 1051 393 l 431 393 l 431 214 l 1093 214 l 1093 0 l 100 0 m 464 1078 l 257 1272 l 615 1272 l 742 1078 l 464 1078 z "},"É":{"ha":1132,"x_min":100,"x_max":1093,"o":"m 100 0 l 100 992 l 1093 992 l 1093 778 l 431 778 l 431 599 l 1051 599 l 1051 393 l 431 393 l 431 214 l 1093 214 l 1093 0 l 100 0 m 392 1078 l 518 1272 l 876 1272 l 669 1078 l 392 1078 z "},"Ê":{"ha":1132,"x_min":100,"x_max":1093,"o":"m 100 0 l 100 992 l 1093 992 l 1093 778 l 431 778 l 431 599 l 1051 599 l 1051 393 l 431 393 l 431 214 l 1093 214 l 1093 0 l 100 0 m 154 1078 l 361 1272 l 772 1272 l 979 1078 l 654 1078 l 556 1185 l 457 1078 l 154 1078 z "},"Ë":{"ha":1132,"x_min":100,"x_max":1093,"o":"m 100 0 l 100 992 l 1093 992 l 1093 778 l 431 778 l 431 599 l 1051 599 l 1051 393 l 431 393 l 431 214 l 1093 214 l 1093 0 l 100 0 m 207 1065 l 207 1243 l 501 1243 l 501 1065 l 207 1065 m 632 1065 l 632 1243 l 926 1243 l 926 1065 l 632 1065 z "},"Ì":{"ha":539,"x_min":-40,"x_max":444,"o":"m 104 0 l 104 992 l 435 992 l 435 0 l 104 0 m 167 1078 l -40 1272 l 318 1272 l 444 1078 l 167 1078 z "},"Í":{"ha":539,"x_min":94,"x_max":579,"o":"m 104 0 l 104 992 l 435 992 l 435 0 l 104 0 m 94 1078 l 221 1272 l 579 1272 l 372 1078 l 94 1078 z "},"Î":{"ha":539,"x_min":-143,"x_max":682,"o":"m 104 0 l 104 992 l 435 992 l 435 0 l 104 0 m -143 1078 l 64 1272 l 475 1272 l 682 1078 l 357 1078 l 258 1185 l 160 1078 l -143 1078 z "},"Ï":{"ha":539,"x_min":-90,"x_max":629,"o":"m 104 0 l 104 992 l 435 992 l 435 0 l 104 0 m -90 1065 l -90 1243 l 204 1243 l 204 1065 l -90 1065 m 335 1065 l 335 1243 l 629 1243 l 629 1065 l 335 1065 z "},"Ð":{"ha":1338,"x_min":0,"x_max":1289,"o":"m 100 0 l 100 404 l 0 404 l 0 590 l 100 590 l 100 992 l 817 992 q 1169 867 1049 992 q 1289 496 1289 742 q 1249 254 1289 354 q 1137 101 1210 154 q 976 24 1064 47 q 774 0 888 0 l 100 0 m 647 590 l 647 404 l 431 404 l 431 222 l 707 222 q 824 245 775 222 q 898 309 872 268 q 935 396 924 350 q 947 497 947 442 q 681 769 947 769 l 431 769 l 431 590 l 647 590 z "},"Ñ":{"ha":1363,"x_min":100,"x_max":1263,"o":"m 100 0 l 100 992 l 481 992 l 940 371 l 943 371 l 943 992 l 1263 992 l 1263 0 l 897 0 l 422 626 l 419 626 l 419 0 l 100 0 m 443 1071 l 310 1071 q 535 1272 357 1272 q 633 1260 576 1272 l 826 1219 q 865 1213 861 1213 q 925 1261 906 1213 l 1054 1261 q 996 1113 1043 1171 q 858 1056 949 1056 q 794 1061 829 1056 q 729 1073 760 1067 q 590 1104 699 1079 q 507 1121 514 1121 q 443 1071 457 1121 z "},"Ò":{"ha":1389,"x_min":49,"x_max":1340,"o":"m 694 -31 q 372 -31 694 -31 q 49 496 49 -31 q 694 1022 49 1022 q 1340 496 1340 1022 q 694 -31 1340 -31 m 399 496 q 478 268 399 344 q 694 192 557 192 q 911 268 832 192 q 990 496 990 344 q 911 724 990 647 q 694 800 832 800 q 478 723 557 800 q 399 496 399 646 m 592 1078 l 385 1272 l 743 1272 l 869 1078 l 592 1078 z "},"Ó":{"ha":1389,"x_min":49,"x_max":1340,"o":"m 694 -31 q 372 -31 694 -31 q 49 496 49 -31 q 694 1022 49 1022 q 1340 496 1340 1022 q 694 -31 1340 -31 m 399 496 q 478 268 399 344 q 694 192 557 192 q 911 268 832 192 q 990 496 990 344 q 911 724 990 647 q 694 800 832 800 q 478 723 557 800 q 399 496 399 646 m 519 1078 l 646 1272 l 1004 1272 l 797 1078 l 519 1078 z "},"Ô":{"ha":1389,"x_min":49,"x_max":1340,"o":"m 694 -31 q 372 -31 694 -31 q 49 496 49 -31 q 694 1022 49 1022 q 1340 496 1340 1022 q 694 -31 1340 -31 m 399 496 q 478 268 399 344 q 694 192 557 192 q 911 268 832 192 q 990 496 990 344 q 911 724 990 647 q 694 800 832 800 q 478 723 557 800 q 399 496 399 646 m 282 1078 l 489 1272 l 900 1272 l 1107 1078 l 782 1078 l 683 1185 l 585 1078 l 282 1078 z "},"Õ":{"ha":1389,"x_min":49,"x_max":1340,"o":"m 694 -31 q 372 -31 694 -31 q 49 496 49 -31 q 694 1022 49 1022 q 1340 496 1340 1022 q 694 -31 1340 -31 m 399 496 q 478 268 399 344 q 694 192 557 192 q 911 268 832 192 q 990 496 990 344 q 911 724 990 647 q 694 800 832 800 q 478 723 557 800 q 399 496 399 646 m 456 1071 l 322 1071 q 547 1272 369 1272 q 646 1260 589 1272 l 839 1219 q 878 1213 874 1213 q 938 1261 918 1213 l 1067 1261 q 1008 1113 1056 1171 q 871 1056 961 1056 q 807 1061 842 1056 q 742 1073 772 1067 q 603 1104 711 1079 q 519 1121 526 1121 q 456 1071 469 1121 z "},"Ö":{"ha":1389,"x_min":49,"x_max":1340,"o":"m 694 -31 q 372 -31 694 -31 q 49 496 49 -31 q 694 1022 49 1022 q 1340 496 1340 1022 q 694 -31 1340 -31 m 399 496 q 478 268 399 344 q 694 192 557 192 q 911 268 832 192 q 990 496 990 344 q 911 724 990 647 q 694 800 832 800 q 478 723 557 800 q 399 496 399 646 m 335 1065 l 335 1243 l 629 1243 l 629 1065 l 335 1065 m 760 1065 l 760 1243 l 1054 1243 l 1054 1065 l 760 1065 z "},"×":{"ha":833,"x_min":81,"x_max":753,"o":"m 279 351 l 81 550 l 218 688 l 417 489 l 615 688 l 753 550 l 554 351 l 753 153 l 615 15 l 417 214 l 218 15 l 81 153 l 279 351 z "},"Ø":{"ha":1389,"x_min":43,"x_max":1346,"o":"m 426 347 l 900 732 q 694 800 826 800 q 478 723 557 800 q 399 496 399 646 q 426 347 399 410 m 963 644 l 489 260 q 694 192 563 192 q 911 268 832 192 q 990 496 990 344 q 963 644 990 582 m 43 36 l 169 139 q 49 496 49 268 q 694 1022 49 1022 q 1133 922 976 1022 l 1279 1040 l 1346 956 l 1219 853 q 1340 496 1340 724 q 694 -31 1340 -31 q 256 69 414 -31 l 110 -49 l 43 36 z "},"Ù":{"ha":1286,"x_min":86,"x_max":1200,"o":"m 86 350 l 86 992 l 417 992 l 417 404 q 471 240 417 288 q 643 192 525 192 q 815 240 761 192 q 869 404 869 288 l 869 992 l 1200 992 l 1200 350 q 1058 60 1200 151 q 643 -31 917 -31 q 228 60 369 -31 q 86 350 86 151 m 540 1078 l 333 1272 l 692 1272 l 818 1078 l 540 1078 z "},"Ú":{"ha":1286,"x_min":86,"x_max":1200,"o":"m 86 350 l 86 992 l 417 992 l 417 404 q 471 240 417 288 q 643 192 525 192 q 815 240 761 192 q 869 404 869 288 l 869 992 l 1200 992 l 1200 350 q 1058 60 1200 151 q 643 -31 917 -31 q 228 60 369 -31 q 86 350 86 151 m 468 1078 l 594 1272 l 953 1272 l 746 1078 l 468 1078 z "},"Û":{"ha":1286,"x_min":86,"x_max":1200,"o":"m 86 350 l 86 992 l 417 992 l 417 404 q 471 240 417 288 q 643 192 525 192 q 815 240 761 192 q 869 404 869 288 l 869 992 l 1200 992 l 1200 350 q 1058 60 1200 151 q 643 -31 917 -31 q 228 60 369 -31 q 86 350 86 151 m 231 1078 l 438 1272 l 849 1272 l 1056 1078 l 731 1078 l 632 1185 l 533 1078 l 231 1078 z "},"Ü":{"ha":1286,"x_min":86,"x_max":1200,"o":"m 86 350 l 86 992 l 417 992 l 417 404 q 471 240 417 288 q 643 192 525 192 q 815 240 761 192 q 869 404 869 288 l 869 992 l 1200 992 l 1200 350 q 1058 60 1200 151 q 643 -31 917 -31 q 228 60 369 -31 q 86 350 86 151 m 283 1065 l 283 1243 l 578 1243 l 578 1065 l 283 1065 m 708 1065 l 708 1243 l 1003 1243 l 1003 1065 l 708 1065 z "},"Ý":{"ha":1131,"x_min":-40,"x_max":1171,"o":"m 400 0 l 400 313 l -40 992 l 343 992 l 565 571 l 788 992 l 1171 992 l 731 313 l 731 0 l 400 0 m 390 1078 l 517 1272 l 875 1272 l 668 1078 l 390 1078 z "},"Þ":{"ha":1235,"x_min":100,"x_max":1199,"o":"m 431 647 l 431 397 l 725 397 q 826 427 794 397 q 857 522 857 457 q 826 617 857 588 q 725 647 794 647 l 431 647 m 100 0 l 100 992 l 431 992 l 431 853 l 833 853 q 1112 763 1025 853 q 1199 522 1199 674 q 1181 401 1199 457 q 1124 296 1163 344 q 1015 219 1086 247 q 849 192 944 192 l 431 192 l 431 0 l 100 0 z "},"ß":{"ha":1157,"x_min":88,"x_max":1106,"o":"m 88 0 l 88 681 q 110 816 88 758 q 187 921 133 874 q 340 992 240 968 q 581 1017 439 1017 q 1046 750 1046 1017 q 1006 626 1046 669 q 908 572 967 582 l 908 569 q 1051 487 996 554 q 1106 300 1106 419 q 993 65 1106 147 q 694 -17 881 -17 q 468 10 561 -17 l 468 215 q 618 197 550 197 q 749 232 703 197 q 794 335 794 267 q 586 458 794 458 l 494 458 l 494 628 l 565 628 q 726 715 726 628 q 575 811 726 811 q 421 765 460 811 q 382 621 382 719 l 382 0 l 88 0 z "},"à":{"ha":1131,"x_min":38,"x_max":1069,"o":"m 383 517 l 89 517 q 127 629 97 582 q 199 703 157 676 q 303 747 242 731 q 424 767 365 763 q 560 772 483 772 q 751 762 671 772 q 901 724 832 751 q 1004 645 969 697 q 1039 517 1039 593 l 1039 136 q 1069 0 1039 56 l 775 0 q 760 69 763 29 q 614 -9 700 13 q 406 -31 528 -31 q 38 204 38 -31 q 117 383 38 328 q 363 450 197 439 l 656 469 q 727 487 710 474 q 744 531 744 500 q 558 611 744 611 q 383 517 404 611 m 753 306 l 753 351 q 640 331 718 340 l 442 307 q 357 231 357 297 q 393 163 357 188 q 489 139 429 139 q 684 183 615 139 q 753 306 753 228 m 463 839 l 256 1033 l 614 1033 l 740 839 l 463 839 z "},"á":{"ha":1131,"x_min":38,"x_max":1069,"o":"m 383 517 l 89 517 q 127 629 97 582 q 199 703 157 676 q 303 747 242 731 q 424 767 365 763 q 560 772 483 772 q 751 762 671 772 q 901 724 832 751 q 1004 645 969 697 q 1039 517 1039 593 l 1039 136 q 1069 0 1039 56 l 775 0 q 760 69 763 29 q 614 -9 700 13 q 406 -31 528 -31 q 38 204 38 -31 q 117 383 38 328 q 363 450 197 439 l 656 469 q 727 487 710 474 q 744 531 744 500 q 558 611 744 611 q 383 517 404 611 m 753 306 l 753 351 q 640 331 718 340 l 442 307 q 357 231 357 297 q 393 163 357 188 q 489 139 429 139 q 684 183 615 139 q 753 306 753 228 m 390 839 l 517 1033 l 875 1033 l 668 839 l 390 839 z "},"â":{"ha":1131,"x_min":38,"x_max":1069,"o":"m 383 517 l 89 517 q 127 629 97 582 q 199 703 157 676 q 303 747 242 731 q 424 767 365 763 q 560 772 483 772 q 751 762 671 772 q 901 724 832 751 q 1004 645 969 697 q 1039 517 1039 593 l 1039 136 q 1069 0 1039 56 l 775 0 q 760 69 763 29 q 614 -9 700 13 q 406 -31 528 -31 q 38 204 38 -31 q 117 383 38 328 q 363 450 197 439 l 656 469 q 727 487 710 474 q 744 531 744 500 q 558 611 744 611 q 383 517 404 611 m 753 306 l 753 351 q 640 331 718 340 l 442 307 q 357 231 357 297 q 393 163 357 188 q 489 139 429 139 q 684 183 615 139 q 753 306 753 228 m 153 839 l 360 1033 l 771 1033 l 978 839 l 653 839 l 554 946 l 456 839 l 153 839 z "},"ã":{"ha":1131,"x_min":38,"x_max":1069,"o":"m 383 517 l 89 517 q 127 629 97 582 q 199 703 157 676 q 303 747 242 731 q 424 767 365 763 q 560 772 483 772 q 751 762 671 772 q 901 724 832 751 q 1004 645 969 697 q 1039 517 1039 593 l 1039 136 q 1069 0 1039 56 l 775 0 q 760 69 763 29 q 614 -9 700 13 q 406 -31 528 -31 q 38 204 38 -31 q 117 383 38 328 q 363 450 197 439 l 656 469 q 727 487 710 474 q 744 531 744 500 q 558 611 744 611 q 383 517 404 611 m 753 306 l 753 351 q 640 331 718 340 l 442 307 q 357 231 357 297 q 393 163 357 188 q 489 139 429 139 q 684 183 615 139 q 753 306 753 228 m 326 832 l 193 832 q 418 1033 240 1033 q 517 1021 460 1033 l 710 981 q 749 974 744 974 q 808 1022 789 974 l 938 1022 q 879 874 926 932 q 742 817 832 817 q 678 822 713 817 q 613 834 643 828 q 474 865 582 840 q 390 882 397 882 q 326 832 340 882 z "},"ä":{"ha":1131,"x_min":38,"x_max":1069,"o":"m 383 517 l 89 517 q 127 629 97 582 q 199 703 157 676 q 303 747 242 731 q 424 767 365 763 q 560 772 483 772 q 751 762 671 772 q 901 724 832 751 q 1004 645 969 697 q 1039 517 1039 593 l 1039 136 q 1069 0 1039 56 l 775 0 q 760 69 763 29 q 614 -9 700 13 q 406 -31 528 -31 q 38 204 38 -31 q 117 383 38 328 q 363 450 197 439 l 656 469 q 727 487 710 474 q 744 531 744 500 q 558 611 744 611 q 383 517 404 611 m 753 306 l 753 351 q 640 331 718 340 l 442 307 q 357 231 357 297 q 393 163 357 188 q 489 139 429 139 q 684 183 615 139 q 753 306 753 228 m 206 826 l 206 1004 l 500 1004 l 500 826 l 206 826 m 631 826 l 631 1004 l 925 1004 l 925 826 l 631 826 z "},"å":{"ha":1131,"x_min":38,"x_max":1069,"o":"m 383 517 l 89 517 q 127 629 97 582 q 199 703 157 676 q 303 747 242 731 q 424 767 365 763 q 560 772 483 772 q 751 762 671 772 q 901 724 832 751 q 1004 645 969 697 q 1039 517 1039 593 l 1039 136 q 1069 0 1039 56 l 775 0 q 760 69 763 29 q 614 -9 700 13 q 406 -31 528 -31 q 38 204 38 -31 q 117 383 38 328 q 363 450 197 439 l 656 469 q 727 487 710 474 q 744 531 744 500 q 558 611 744 611 q 383 517 404 611 m 753 306 l 753 351 q 640 331 718 340 l 442 307 q 357 231 357 297 q 393 163 357 188 q 489 139 429 139 q 684 183 615 139 q 753 306 753 228 m 449 870 q 423 897 449 870 q 396 1000 396 924 q 449 1130 396 1076 q 579 1183 503 1183 q 709 1130 656 1183 q 763 1000 763 1076 q 709 870 763 924 q 579 817 656 817 q 449 870 503 817 m 522 1057 q 510 1045 522 1057 q 499 1000 499 1033 q 522 943 499 967 q 579 919 546 919 q 636 943 613 919 q 660 1000 660 967 q 636 1057 660 1033 q 579 1081 613 1081 q 522 1057 546 1081 z "},"æ":{"ha":1621,"x_min":44,"x_max":1576,"o":"m 369 517 l 89 517 q 148 661 104 604 q 260 743 192 718 q 390 776 329 768 q 535 783 450 783 q 842 697 746 783 q 960 760 882 738 q 1119 783 1038 783 q 1463 667 1350 783 q 1576 343 1576 550 l 1576 307 l 933 307 q 985 186 940 233 q 1125 139 1031 139 q 1281 222 1238 139 l 1567 222 q 1409 30 1521 90 q 1146 -31 1297 -31 q 814 90 914 -31 q 661 2 763 35 q 431 -31 560 -31 q 144 26 243 -31 q 44 217 44 82 q 122 381 44 326 q 375 447 199 435 q 490 455 413 450 q 606 463 567 460 q 689 528 689 468 q 651 594 689 574 q 538 614 614 614 q 417 593 458 614 q 369 517 375 572 m 933 451 l 1310 451 q 1251 569 1297 524 q 1119 614 1204 614 q 992 569 1038 614 q 933 451 946 524 m 692 303 l 692 344 q 620 325 667 332 q 515 314 574 318 q 436 307 457 310 q 339 224 339 296 q 374 161 339 183 q 471 139 408 139 q 638 178 583 139 q 692 303 692 217 z "},"ç":{"ha":1131,"x_min":44,"x_max":1093,"o":"m 782 307 l 1093 307 q 941 58 1060 143 q 592 -29 822 -26 l 560 -81 q 619 -78 590 -78 q 713 -106 669 -78 q 757 -187 757 -133 q 563 -310 757 -310 q 360 -283 458 -310 l 385 -212 q 497 -232 453 -232 q 545 -219 528 -232 q 563 -189 563 -207 q 508 -154 563 -154 q 458 -164 488 -154 l 424 -136 l 497 -26 q 161 87 278 -14 q 44 376 44 188 q 184 680 44 576 q 572 783 324 783 q 1079 460 1043 783 l 776 460 q 576 589 754 589 q 414 533 472 589 q 356 376 356 478 q 413 219 356 275 q 578 164 471 164 q 782 307 753 164 z "},"è":{"ha":1131,"x_min":44,"x_max":1086,"o":"m 347 460 l 783 460 q 716 571 769 528 q 565 614 663 614 q 415 571 468 614 q 347 460 361 528 m 761 224 l 1072 224 q 918 43 1042 117 q 572 -31 794 -31 q 44 378 44 -31 q 184 678 44 574 q 564 783 324 783 q 949 671 813 783 q 1086 329 1086 558 l 1086 307 l 347 307 q 583 139 374 139 q 761 224 694 139 m 463 839 l 256 1033 l 614 1033 l 740 839 l 463 839 z "},"é":{"ha":1131,"x_min":44,"x_max":1086,"o":"m 347 460 l 783 460 q 716 571 769 528 q 565 614 663 614 q 415 571 468 614 q 347 460 361 528 m 761 224 l 1072 224 q 918 43 1042 117 q 572 -31 794 -31 q 44 378 44 -31 q 184 678 44 574 q 564 783 324 783 q 949 671 813 783 q 1086 329 1086 558 l 1086 307 l 347 307 q 583 139 374 139 q 761 224 694 139 m 390 839 l 517 1033 l 875 1033 l 668 839 l 390 839 z "},"ê":{"ha":1131,"x_min":44,"x_max":1086,"o":"m 347 460 l 783 460 q 716 571 769 528 q 565 614 663 614 q 415 571 468 614 q 347 460 361 528 m 761 224 l 1072 224 q 918 43 1042 117 q 572 -31 794 -31 q 44 378 44 -31 q 184 678 44 574 q 564 783 324 783 q 949 671 813 783 q 1086 329 1086 558 l 1086 307 l 347 307 q 583 139 374 139 q 761 224 694 139 m 153 839 l 360 1033 l 771 1033 l 978 839 l 653 839 l 554 946 l 456 839 l 153 839 z "},"ë":{"ha":1131,"x_min":44,"x_max":1086,"o":"m 347 460 l 783 460 q 716 571 769 528 q 565 614 663 614 q 415 571 468 614 q 347 460 361 528 m 761 224 l 1072 224 q 918 43 1042 117 q 572 -31 794 -31 q 44 378 44 -31 q 184 678 44 574 q 564 783 324 783 q 949 671 813 783 q 1086 329 1086 558 l 1086 307 l 347 307 q 583 139 374 139 q 761 224 694 139 m 206 826 l 206 1004 l 500 1004 l 500 826 l 206 826 m 631 826 l 631 1004 l 925 1004 l 925 826 l 631 826 z "},"ì":{"ha":461,"x_min":-79,"x_max":406,"o":"m 83 0 l 83 753 l 378 753 l 378 0 l 83 0 m 128 839 l -79 1033 l 279 1033 l 406 839 l 128 839 z "},"í":{"ha":461,"x_min":56,"x_max":540,"o":"m 83 0 l 83 753 l 378 753 l 378 0 l 83 0 m 56 839 l 182 1033 l 540 1033 l 333 839 l 56 839 z "},"î":{"ha":461,"x_min":-182,"x_max":643,"o":"m 83 0 l 83 753 l 378 753 l 378 0 l 83 0 m -182 839 l 25 1033 l 436 1033 l 643 839 l 318 839 l 219 946 l 121 839 l -182 839 z "},"ï":{"ha":461,"x_min":-129,"x_max":590,"o":"m 83 0 l 83 753 l 378 753 l 378 0 l 83 0 m -129 826 l -129 1004 l 165 1004 l 165 826 l -129 826 m 296 826 l 296 1004 l 590 1004 l 590 826 l 296 826 z "},"ð":{"ha":1131,"x_min":38,"x_max":1093,"o":"m 349 335 q 565 164 349 164 q 727 208 672 164 q 782 335 782 253 q 727 461 782 417 q 565 506 672 506 q 403 461 458 506 q 349 335 349 417 m 197 806 l 360 876 q 211 922 292 900 l 367 1076 q 638 1000 508 1054 l 806 1074 l 908 1007 l 760 942 q 1005 713 917 850 q 1093 400 1093 576 q 959 74 1093 178 q 565 -31 825 -31 q 174 65 310 -31 q 38 349 38 161 q 102 546 38 464 q 263 664 167 628 q 475 700 360 700 q 708 642 622 700 l 711 644 q 492 822 649 749 l 289 733 l 197 806 z "},"ñ":{"ha":1081,"x_min":78,"x_max":1003,"o":"m 78 0 l 78 753 l 364 753 l 364 644 l 367 644 q 683 772 471 772 q 915 702 828 772 q 1003 496 1003 632 l 1003 0 l 708 0 l 708 407 q 556 550 708 550 q 423 504 474 550 q 372 369 372 458 l 372 0 l 78 0 m 301 832 l 168 832 q 393 1033 215 1033 q 492 1021 435 1033 l 685 981 q 724 974 719 974 q 783 1022 764 974 l 913 1022 q 854 874 901 932 q 717 817 807 817 q 653 822 688 817 q 588 834 618 828 q 449 865 557 840 q 365 882 372 882 q 301 832 315 882 z "},"ò":{"ha":1131,"x_min":38,"x_max":1093,"o":"m 724 535 q 695 562 724 535 q 565 589 667 589 q 406 535 464 589 q 349 376 349 481 q 406 218 349 272 q 565 164 464 164 q 724 218 667 164 q 782 376 782 272 q 724 535 782 481 m 174 74 q 106 126 174 74 q 38 376 38 178 q 174 679 38 575 q 565 783 310 783 q 957 679 821 783 q 1093 376 1093 575 q 957 74 1093 178 q 565 -31 821 -31 q 174 74 310 -31 m 463 839 l 256 1033 l 614 1033 l 740 839 l 463 839 z "},"ó":{"ha":1131,"x_min":38,"x_max":1093,"o":"m 724 535 q 695 562 724 535 q 565 589 667 589 q 406 535 464 589 q 349 376 349 481 q 406 218 349 272 q 565 164 464 164 q 724 218 667 164 q 782 376 782 272 q 724 535 782 481 m 174 74 q 106 126 174 74 q 38 376 38 178 q 174 679 38 575 q 565 783 310 783 q 957 679 821 783 q 1093 376 1093 575 q 957 74 1093 178 q 565 -31 821 -31 q 174 74 310 -31 m 390 839 l 517 1033 l 875 1033 l 668 839 l 390 839 z "},"ô":{"ha":1131,"x_min":38,"x_max":1093,"o":"m 724 535 q 695 562 724 535 q 565 589 667 589 q 406 535 464 589 q 349 376 349 481 q 406 218 349 272 q 565 164 464 164 q 724 218 667 164 q 782 376 782 272 q 724 535 782 481 m 174 74 q 106 126 174 74 q 38 376 38 178 q 174 679 38 575 q 565 783 310 783 q 957 679 821 783 q 1093 376 1093 575 q 957 74 1093 178 q 565 -31 821 -31 q 174 74 310 -31 m 153 839 l 360 1033 l 771 1033 l 978 839 l 653 839 l 554 946 l 456 839 l 153 839 z "},"õ":{"ha":1131,"x_min":38,"x_max":1093,"o":"m 724 535 q 695 562 724 535 q 565 589 667 589 q 406 535 464 589 q 349 376 349 481 q 406 218 349 272 q 565 164 464 164 q 724 218 667 164 q 782 376 782 272 q 724 535 782 481 m 174 74 q 106 126 174 74 q 38 376 38 178 q 174 679 38 575 q 565 783 310 783 q 957 679 821 783 q 1093 376 1093 575 q 957 74 1093 178 q 565 -31 821 -31 q 174 74 310 -31 m 326 832 l 193 832 q 418 1033 240 1033 q 517 1021 460 1033 l 710 981 q 749 974 744 974 q 808 1022 789 974 l 938 1022 q 879 874 926 932 q 742 817 832 817 q 678 822 713 817 q 613 834 643 828 q 474 865 582 840 q 390 882 397 882 q 326 832 340 882 z "},"ö":{"ha":1131,"x_min":38,"x_max":1093,"o":"m 724 535 q 695 562 724 535 q 565 589 667 589 q 406 535 464 589 q 349 376 349 481 q 406 218 349 272 q 565 164 464 164 q 724 218 667 164 q 782 376 782 272 q 724 535 782 481 m 174 74 q 106 126 174 74 q 38 376 38 178 q 174 679 38 575 q 565 783 310 783 q 957 679 821 783 q 1093 376 1093 575 q 957 74 1093 178 q 565 -31 821 -31 q 174 74 310 -31 m 206 826 l 206 1004 l 500 1004 l 500 826 l 206 826 m 631 826 l 631 1004 l 925 1004 l 925 826 l 631 826 z "},"÷":{"ha":833,"x_min":65,"x_max":768,"o":"m 65 254 l 65 449 l 768 449 l 768 254 l 65 254 m 319 549 q 299 569 319 549 q 279 646 279 589 q 319 743 279 703 q 417 783 360 783 q 514 743 474 783 q 554 646 554 703 q 514 549 554 589 q 417 508 474 508 q 319 549 360 508 m 319 -40 q 299 -20 319 -40 q 279 57 279 0 q 319 154 279 114 q 417 194 360 194 q 514 154 474 194 q 554 57 554 114 q 514 -40 554 0 q 417 -81 474 -81 q 319 -40 360 -81 z "},"ø":{"ha":1131,"x_min":28,"x_max":1103,"o":"m 28 21 l 138 106 q 38 376 38 208 q 174 679 38 575 q 565 783 310 783 q 918 706 788 783 l 1047 806 l 1103 732 l 993 647 q 1093 376 1093 547 q 957 74 1093 178 q 565 -31 821 -31 q 213 47 340 -31 l 83 -53 l 28 21 m 365 281 l 710 546 q 565 589 657 589 q 406 535 464 589 q 349 376 349 481 q 365 281 349 319 m 765 472 l 421 207 q 565 164 474 164 q 724 218 667 164 q 782 376 782 272 q 765 472 782 433 z "},"ù":{"ha":1081,"x_min":78,"x_max":1003,"o":"m 78 274 l 78 753 l 372 753 l 372 364 q 410 231 372 271 q 525 192 449 192 q 658 238 607 192 q 708 372 708 283 l 708 753 l 1003 753 l 1003 0 l 717 0 l 717 97 l 714 97 q 397 -31 610 -31 q 164 42 250 -31 q 78 274 78 114 m 438 839 l 231 1033 l 589 1033 l 715 839 l 438 839 z "},"ú":{"ha":1081,"x_min":78,"x_max":1003,"o":"m 78 274 l 78 753 l 372 753 l 372 364 q 410 231 372 271 q 525 192 449 192 q 658 238 607 192 q 708 372 708 283 l 708 753 l 1003 753 l 1003 0 l 717 0 l 717 97 l 714 97 q 397 -31 610 -31 q 164 42 250 -31 q 78 274 78 114 m 365 839 l 492 1033 l 850 1033 l 643 839 l 365 839 z "},"û":{"ha":1081,"x_min":78,"x_max":1003,"o":"m 78 274 l 78 753 l 372 753 l 372 364 q 410 231 372 271 q 525 192 449 192 q 658 238 607 192 q 708 372 708 283 l 708 753 l 1003 753 l 1003 0 l 717 0 l 717 97 l 714 97 q 397 -31 610 -31 q 164 42 250 -31 q 78 274 78 114 m 128 839 l 335 1033 l 746 1033 l 953 839 l 628 839 l 529 946 l 431 839 l 128 839 z "},"ü":{"ha":1081,"x_min":78,"x_max":1003,"o":"m 78 274 l 78 753 l 372 753 l 372 364 q 410 231 372 271 q 525 192 449 192 q 658 238 607 192 q 708 372 708 283 l 708 753 l 1003 753 l 1003 0 l 717 0 l 717 97 l 714 97 q 397 -31 610 -31 q 164 42 250 -31 q 78 274 78 114 m 181 826 l 181 1004 l 475 1004 l 475 826 l 181 826 m 606 826 l 606 1004 l 900 1004 l 900 826 l 606 826 z "},"ý":{"ha":951,"x_min":-26,"x_max":978,"o":"m 89 -264 l 89 -78 l 160 -78 q 238 -69 208 -78 q 276 -50 267 -60 q 294 -24 286 -40 l 328 43 l -26 753 l 293 753 l 483 306 l 667 753 l 978 753 l 578 -94 q 520 -193 546 -160 q 440 -249 494 -226 q 296 -272 385 -272 q 89 -264 203 -272 m 301 839 l 428 1033 l 786 1033 l 579 839 l 301 839 z "},"þ":{"ha":1131,"x_min":78,"x_max":1093,"o":"m 78 -272 l 78 1017 l 372 1017 l 372 653 l 375 653 q 499 743 411 714 q 665 772 586 772 q 972 669 851 772 q 1093 371 1093 567 q 969 80 1093 190 q 665 -31 846 -31 q 375 68 471 -31 l 372 68 l 372 -272 l 78 -272 m 426 515 q 399 490 426 515 q 372 375 372 464 q 426 235 372 286 q 582 183 481 183 q 737 233 683 183 q 790 375 790 282 q 737 517 790 468 q 582 567 683 567 q 426 515 481 567 z "},"ÿ":{"ha":951,"x_min":-26,"x_max":978,"o":"m 89 -264 l 89 -78 l 160 -78 q 238 -69 208 -78 q 276 -50 267 -60 q 294 -24 286 -40 l 328 43 l -26 753 l 293 753 l 483 306 l 667 753 l 978 753 l 578 -94 q 520 -193 546 -160 q 440 -249 494 -226 q 296 -272 385 -272 q 89 -264 203 -272 m 117 826 l 117 1004 l 411 1004 l 411 826 l 117 826 m 542 826 l 542 1004 l 836 1004 l 836 826 l 542 826 z "},"ı":{"ha":461,"x_min":83,"x_max":378,"o":"m 83 0 l 83 753 l 378 753 l 378 0 l 83 0 z "},"Ł":{"ha":1056,"x_min":0,"x_max":1035,"o":"m 0 228 l 0 450 l 100 511 l 100 992 l 431 992 l 431 690 l 668 836 l 668 614 l 431 468 l 431 231 l 1035 231 l 1035 0 l 100 0 l 100 289 l 0 228 z "},"ł":{"ha":461,"x_min":0,"x_max":461,"o":"m 83 0 l 83 360 l 0 308 l 0 503 l 83 554 l 83 1017 l 378 1017 l 378 722 l 461 772 l 461 578 l 378 528 l 378 0 l 83 0 z "},"Œ":{"ha":1621,"x_min":49,"x_max":1582,"o":"m 796 358 l 796 656 q 737 761 796 714 q 601 808 678 808 q 379 496 379 808 q 431 270 379 357 q 601 183 483 183 q 742 239 688 183 q 796 358 796 294 m 797 0 l 797 67 q 519 -31 688 -31 q 178 108 307 -31 q 49 496 49 247 q 179 884 49 746 q 528 1022 310 1022 q 797 925 710 1022 l 797 992 l 1574 992 l 1574 778 l 1082 778 l 1082 599 l 1556 599 l 1556 393 l 1082 393 l 1082 214 l 1582 214 l 1582 0 l 797 0 z "},"œ":{"ha":1621,"x_min":38,"x_max":1576,"o":"m 1281 222 l 1567 222 q 1409 30 1521 90 q 1146 -31 1297 -31 q 815 83 914 -31 q 497 -31 692 -31 q 154 77 271 -31 q 38 376 38 185 q 154 676 38 568 q 497 783 271 783 q 817 683 697 783 q 1119 783 917 783 q 1463 667 1350 783 q 1576 343 1576 550 l 1576 307 l 933 307 q 985 186 940 233 q 1125 139 1031 139 q 1281 222 1238 139 m 511 164 q 700 376 700 164 q 511 589 700 589 q 324 376 324 589 q 511 164 324 164 m 933 451 l 1310 451 q 1251 569 1297 524 q 1119 614 1204 614 q 992 569 1038 614 q 933 451 946 524 z "},"Š":{"ha":1235,"x_min":32,"x_max":1203,"o":"m 1161 701 l 786 701 q 571 817 769 817 q 399 719 399 817 q 472 658 399 671 q 681 626 508 653 q 907 590 854 600 q 1128 499 1053 565 q 1203 308 1203 433 q 631 -31 1203 -31 q 396 -17 494 -31 q 214 33 297 -3 q 85 138 131 69 q 32 306 39 206 l 424 306 q 478 214 431 244 q 646 183 525 183 q 819 288 819 183 q 785 344 819 326 q 663 376 751 363 l 332 426 q 49 707 49 469 q 60 790 49 750 q 105 874 71 831 q 194 949 139 918 q 344 1001 249 981 q 564 1022 439 1022 q 995 947 844 1022 q 1161 701 1146 872 m 413 1078 l 206 1272 l 531 1272 l 629 1165 l 728 1272 l 1031 1272 l 824 1078 l 413 1078 z "},"š":{"ha":1054,"x_min":38,"x_max":1017,"o":"m 38 235 l 379 235 q 421 171 386 189 q 551 147 461 147 q 686 214 686 147 q 664 255 686 243 q 585 274 642 267 l 322 306 q 126 371 190 321 q 63 515 63 421 q 178 722 63 661 q 519 783 294 783 q 989 533 969 783 l 658 533 q 606 597 654 579 q 500 614 567 614 q 365 543 365 614 q 460 490 365 501 l 714 463 q 944 392 871 446 q 1017 231 1017 339 q 535 -31 1017 -31 q 38 235 46 -31 m 322 839 l 115 1033 l 440 1033 l 539 926 l 638 1033 l 940 1033 l 733 839 l 322 839 z "},"Ÿ":{"ha":1131,"x_min":-40,"x_max":1171,"o":"m 400 0 l 400 313 l -40 992 l 343 992 l 565 571 l 788 992 l 1171 992 l 731 313 l 731 0 l 400 0 m 206 1065 l 206 1243 l 500 1243 l 500 1065 l 206 1065 m 631 1065 l 631 1243 l 925 1243 l 925 1065 l 631 1065 z "},"Ž":{"ha":1131,"x_min":25,"x_max":1093,"o":"m 25 0 l 25 190 l 650 769 l 68 769 l 68 992 l 1093 992 l 1093 797 l 472 222 l 1083 222 l 1083 0 l 25 0 m 360 1078 l 153 1272 l 478 1272 l 576 1165 l 675 1272 l 978 1272 l 771 1078 l 360 1078 z "},"ž":{"ha":926,"x_min":31,"x_max":896,"o":"m 31 0 l 31 178 l 483 544 l 483 547 l 54 547 l 54 753 l 882 753 l 882 575 l 443 206 l 896 206 l 896 0 l 31 0 m 258 839 l 51 1033 l 376 1033 l 475 926 l 574 1033 l 876 1033 l 669 839 l 258 839 z "},"ƒ":{"ha":1233,"x_min":179,"x_max":1054,"o":"m 322 410 l 353 554 l 511 554 l 557 783 q 642 927 575 871 q 868 983 710 983 q 1054 974 915 983 l 1021 793 q 944 797 946 797 q 876 778 897 797 q 847 719 856 758 l 814 554 l 969 554 l 939 410 l 783 410 l 683 -72 q 581 -227 661 -182 q 368 -272 500 -272 q 179 -262 364 -272 l 217 -82 q 285 -86 283 -86 q 365 -60 340 -86 q 411 69 390 -35 l 481 410 l 322 410 z "},"ˆ":{"ha":386,"x_min":-219,"x_max":606,"o":"m -219 839 l -12 1033 l 399 1033 l 606 839 l 281 839 l 182 946 l 83 839 l -219 839 z "},"ˇ":{"ha":386,"x_min":-219,"x_max":606,"o":"m -12 839 l -219 1033 l 106 1033 l 204 926 l 303 1033 l 606 1033 l 399 839 l -12 839 z "},"˘":{"ha":386,"x_min":-118,"x_max":504,"o":"m -118 1033 l 43 1033 q 89 978 51 994 q 193 961 128 961 q 343 1033 328 961 l 504 1033 q 408 865 488 918 q 193 817 335 817 q -24 867 53 817 q -118 1033 -101 917 z "},"˙":{"ha":386,"x_min":46,"x_max":340,"o":"m 46 826 l 46 1004 l 340 1004 l 340 826 l 46 826 z "},"˚":{"ha":386,"x_min":10,"x_max":376,"o":"m 63 870 q 36 897 63 870 q 10 1000 10 924 q 63 1130 10 1076 q 193 1183 117 1183 q 323 1130 269 1183 q 376 1000 376 1076 q 323 870 376 924 q 193 817 269 817 q 63 870 117 817 m 136 1057 q 124 1045 136 1057 q 113 1000 113 1033 q 136 943 113 967 q 193 919 160 919 q 250 943 226 919 q 274 1000 274 967 q 250 1057 274 1033 q 193 1081 226 1081 q 136 1057 160 1081 z "},"˛":{"ha":386,"x_min":101,"x_max":463,"o":"m 310 0 l 435 0 q 330 -75 364 -44 q 296 -143 296 -106 q 317 -184 296 -168 q 379 -200 338 -200 q 456 -185 415 -200 l 463 -262 q 279 -289 388 -289 q 101 -175 101 -289 q 158 -68 101 -114 q 310 0 214 -22 z "},"˜":{"ha":386,"x_min":-179,"x_max":565,"o":"m -46 832 l -179 832 q 46 1033 -132 1033 q 144 1021 88 1033 l 338 981 q 376 974 372 974 q 436 1022 417 974 l 565 1022 q 507 874 554 932 q 369 817 460 817 q 306 822 340 817 q 240 834 271 828 q 101 865 210 840 q 18 882 25 882 q -46 832 -32 882 z "},"˝":{"ha":386,"x_min":-194,"x_max":714,"o":"m -194 839 l -68 1033 l 290 1033 l 83 839 l -194 839 m 229 839 l 356 1033 l 714 1033 l 507 839 l 229 839 z "},"–":{"ha":694,"x_min":0,"x_max":694,"o":"m 0 306 l 0 500 l 694 500 l 694 306 l 0 306 z "},"—":{"ha":1389,"x_min":0,"x_max":1389,"o":"m 0 306 l 0 500 l 1389 500 l 1389 306 l 0 306 z "},"‘":{"ha":539,"x_min":114,"x_max":425,"o":"m 114 444 l 114 621 q 191 882 114 786 q 425 992 268 978 l 425 878 q 288 719 300 856 l 425 719 l 425 444 l 114 444 z "},"’":{"ha":539,"x_min":114,"x_max":425,"o":"m 114 717 l 114 992 l 425 992 l 425 815 q 348 554 425 650 q 114 444 271 458 l 114 558 q 251 717 239 581 l 114 717 z "},"‚":{"ha":539,"x_min":114,"x_max":425,"o":"m 114 0 l 114 275 l 425 275 l 425 99 q 348 -162 425 -67 q 114 -272 271 -258 l 114 -158 q 251 0 239 -136 l 114 0 z "},"“":{"ha":926,"x_min":92,"x_max":835,"o":"m 92 444 l 92 621 q 169 882 92 786 q 403 992 246 978 l 403 878 q 265 719 278 856 l 403 719 l 403 444 l 92 444 m 524 444 l 524 621 q 601 882 524 786 q 835 992 678 978 l 835 878 q 697 719 710 856 l 835 719 l 835 444 l 524 444 z "},"”":{"ha":926,"x_min":92,"x_max":835,"o":"m 524 717 l 524 992 l 835 992 l 835 815 q 758 554 835 650 q 524 444 681 458 l 524 558 q 661 717 649 581 l 524 717 m 92 717 l 92 992 l 403 992 l 403 815 q 326 554 403 650 q 92 444 249 458 l 92 558 q 229 717 217 581 l 92 717 z "},"„":{"ha":926,"x_min":92,"x_max":835,"o":"m 524 0 l 524 275 l 835 275 l 835 99 q 758 -162 835 -67 q 524 -272 681 -258 l 524 -158 q 661 0 649 -136 l 524 0 m 92 0 l 92 275 l 403 275 l 403 99 q 326 -162 403 -67 q 92 -272 249 -258 l 92 -158 q 229 0 217 -136 l 92 0 z "},"†":{"ha":1233,"x_min":124,"x_max":1110,"o":"m 465 -272 l 465 489 l 124 489 l 124 703 l 465 703 l 465 992 l 768 992 l 768 703 l 1110 703 l 1110 489 l 768 489 l 768 -272 l 465 -272 z "},"‡":{"ha":1233,"x_min":124,"x_max":1110,"o":"m 124 -4 l 124 190 l 469 190 l 469 529 l 124 529 l 124 724 l 469 724 l 469 992 l 764 992 l 764 724 l 1110 724 l 1110 529 l 764 529 l 764 190 l 1110 190 l 1110 -4 l 764 -4 l 764 -272 l 469 -272 l 469 -4 l 124 -4 z "},"•":{"ha":694,"x_min":100,"x_max":594,"o":"m 172 321 q 136 357 172 321 q 100 496 100 393 q 172 671 100 599 q 346 743 244 743 q 522 670 449 743 q 594 494 594 597 q 522 321 594 393 q 347 249 450 249 q 172 321 244 249 z "},"…":{"ha":1389,"x_min":76,"x_max":1313,"o":"m 76 0 l 76 275 l 388 275 l 388 0 l 76 0 m 539 0 l 539 275 l 850 275 l 850 0 l 539 0 m 1001 0 l 1001 275 l 1313 275 l 1313 0 l 1001 0 z "},"‰":{"ha":1621,"x_min":8,"x_max":1613,"o":"m 185 844 q 177 826 185 844 q 169 736 169 808 q 185 628 169 664 q 243 592 200 592 q 303 626 288 592 q 319 736 319 661 q 303 845 319 810 q 243 881 288 881 q 185 844 200 881 m 153 -22 l 785 983 l 940 983 l 308 -22 l 153 -22 m 782 333 q 774 315 782 333 q 767 225 767 297 q 782 117 767 153 q 840 81 797 81 q 901 115 885 81 q 917 225 917 150 q 901 334 917 299 q 840 369 885 369 q 782 333 797 369 m 67 559 q 38 594 67 559 q 8 736 8 629 q 67 913 8 843 q 244 983 125 983 q 481 736 481 983 q 244 489 481 489 q 67 559 125 489 m 664 48 q 635 83 664 48 q 606 225 606 118 q 664 402 606 332 q 842 472 722 472 q 1078 225 1078 472 q 842 -22 1078 -22 q 664 48 722 -22 m 1199 48 q 1169 83 1199 48 q 1140 225 1140 118 q 1199 402 1140 332 q 1376 472 1257 472 q 1613 225 1613 472 q 1376 -22 1613 -22 q 1199 48 1257 -22 m 1317 333 q 1309 315 1317 333 q 1301 225 1301 297 q 1317 117 1301 153 q 1375 81 1332 81 q 1435 115 1419 81 q 1451 225 1451 150 q 1435 334 1451 299 q 1375 369 1419 369 q 1317 333 1332 369 z "},"‹":{"ha":539,"x_min":117,"x_max":403,"o":"m 117 281 l 117 525 l 403 736 l 403 531 l 233 403 l 403 275 l 403 69 l 117 281 z "},"›":{"ha":539,"x_min":136,"x_max":422,"o":"m 136 69 l 136 275 l 306 403 l 136 531 l 136 736 l 422 525 l 422 281 l 136 69 z "},"⁄":{"ha":232,"x_min":-278,"x_max":510,"o":"m -278 -22 l 354 983 l 510 983 l -122 -22 l -278 -22 z "},"™":{"ha":1389,"x_min":17,"x_max":1331,"o":"m 158 419 l 158 847 l 17 847 l 17 992 l 494 992 l 494 847 l 353 847 l 353 419 l 158 419 m 1153 419 l 1153 778 l 1150 778 l 1026 419 l 904 419 l 781 778 l 778 778 l 778 419 l 600 419 l 600 992 l 842 992 l 965 688 l 1089 992 l 1331 992 l 1331 419 l 1153 419 z "},"−":{"ha":833,"x_min":65,"x_max":768,"o":"m 65 254 l 65 449 l 768 449 l 768 254 l 65 254 z "},"ﬁ":{"ha":1106,"x_min":0,"x_max":1022,"o":"m 0 558 l 0 753 l 154 753 l 154 817 q 166 910 154 874 q 211 976 178 947 q 308 1019 244 1006 q 471 1033 372 1033 q 643 1022 551 1033 l 643 856 l 511 856 q 460 844 472 856 q 449 799 449 833 l 449 753 l 643 753 l 643 558 l 449 558 l 449 0 l 154 0 l 154 558 l 0 558 m 728 0 l 728 753 l 1022 753 l 1022 0 l 728 0 m 728 839 l 728 1017 l 1022 1017 l 1022 839 l 728 839 z "},"ﬂ":{"ha":1106,"x_min":0,"x_max":1022,"o":"m 0 558 l 0 753 l 154 753 l 154 817 q 166 910 154 874 q 211 976 178 947 q 308 1019 244 1006 q 471 1033 372 1033 q 643 1022 551 1033 l 643 856 l 511 856 q 460 844 472 856 q 449 799 449 833 l 449 753 l 643 753 l 643 558 l 449 558 l 449 0 l 154 0 l 154 558 l 0 558 m 728 0 l 728 1017 l 1022 1017 l 1022 0 l 728 0 z "}}}
